<svg width="1440" height="300" viewBox="0 0 1440 300" fill="none" xmlns="http://www.w3.org/2000/svg">
<path d="M1440 290H0V250C132.473 234.507 341.749 0 720.751 0C1104.59 0 1306.58 241.338 1440 250V290Z" fill="#FCF713"/>
<path d="M1440 290H0V269.067C132.473 256.724 341.749 61 720.75 61C1104.59 61 1306.58 262.166 1440 269.067V290Z" fill="#F98C03"/>
<path d="M1440 297H0V281.2C132.473 271.284 341.749 108 720.75 108C1104.59 108 1306.58 275.657 1440 281.2V297Z" fill="#E31D00"/>
<path d="M1440 300H0V290.4C132.473 282.963 341.749 156 720.75 156C1104.59 156 1306.58 286.242 1440 290.4V300Z" fill="black"/>
</svg>
