<svg width="420" height="419" viewBox="0 0 420 419" fill="none" xmlns="http://www.w3.org/2000/svg">
<path d="M205.752 118.332V107.704H207.789L212.409 114.789V107.704H214.446V118.332H212.409L207.789 111.247V118.332H205.752Z" fill="#111111"/>
<path d="M205.752 118.332V107.704H207.789L212.409 114.789V107.704H214.446V118.332H212.409L207.789 111.247V118.332H205.752Z" fill="#111111"/>
<path d="M119.588 213.735L108.96 216.85L108.96 214.739L116.267 212.746L108.975 210.753L108.96 208.642L116.267 206.65L108.96 204.657L108.96 202.546L119.588 205.661L119.588 207.639L112.414 209.698L119.588 211.757L119.588 213.735Z" fill="#111111"/>
<path d="M301.412 205.724L312.04 205.724L312.04 212.662L310.165 212.662L310.165 207.732L307.892 207.732L307.892 211.776L306.018 211.776L306.018 207.732L303.287 207.732L303.287 212.662L301.412 212.662L301.412 205.724Z" fill="#111111"/>
<path d="M210.536 312.444C209.749 312.444 209.038 312.306 208.403 312.031C207.773 311.75 207.254 311.352 206.846 310.835C206.442 310.314 206.187 309.694 206.078 308.975L208.174 308.665C208.322 309.275 208.627 309.745 209.09 310.075C209.552 310.405 210.079 310.569 210.669 310.569C210.999 310.569 211.318 310.518 211.628 310.414C211.938 310.311 212.192 310.159 212.389 309.957C212.59 309.755 212.691 309.507 212.691 309.211C212.691 309.103 212.674 309 212.64 308.901C212.61 308.798 212.558 308.702 212.485 308.614C212.411 308.525 212.305 308.441 212.167 308.363C212.034 308.284 211.865 308.213 211.658 308.149L208.898 307.337C208.691 307.278 208.45 307.194 208.174 307.086C207.904 306.978 207.641 306.823 207.385 306.621C207.129 306.419 206.915 306.153 206.743 305.824C206.575 305.489 206.492 305.068 206.492 304.562C206.492 303.848 206.671 303.255 207.03 302.783C207.39 302.311 207.869 301.959 208.47 301.728C209.07 301.496 209.734 301.383 210.462 301.388C211.195 301.398 211.85 301.523 212.426 301.764C213.001 302.006 213.483 302.357 213.872 302.82C214.261 303.277 214.541 303.838 214.714 304.503L212.544 304.872C212.465 304.527 212.32 304.237 212.108 304.001C211.897 303.765 211.643 303.585 211.348 303.462C211.058 303.339 210.753 303.273 210.433 303.263C210.118 303.253 209.82 303.297 209.54 303.396C209.264 303.489 209.038 303.627 208.861 303.809C208.689 303.991 208.602 304.207 208.602 304.458C208.602 304.69 208.674 304.879 208.816 305.027C208.959 305.169 209.139 305.285 209.355 305.374C209.572 305.462 209.793 305.536 210.02 305.595L211.865 306.097C212.14 306.171 212.445 306.269 212.78 306.392C213.114 306.51 213.434 306.677 213.739 306.894C214.049 307.105 214.303 307.386 214.499 307.735C214.701 308.085 214.802 308.527 214.802 309.064C214.802 309.635 214.682 310.134 214.44 310.562C214.204 310.985 213.884 311.337 213.481 311.617C213.078 311.893 212.62 312.1 212.108 312.237C211.601 312.375 211.077 312.444 210.536 312.444Z" fill="#111111"/>
<path d="M210.958 312.444C210.171 312.444 209.46 312.306 208.825 312.031C208.195 311.75 207.676 311.352 207.268 310.835C206.864 310.314 206.608 309.694 206.5 308.975L208.596 308.665C208.744 309.275 209.049 309.745 209.511 310.075C209.974 310.405 210.5 310.569 211.091 310.569C211.421 310.569 211.74 310.518 212.05 310.414C212.36 310.311 212.614 310.159 212.811 309.957C213.012 309.755 213.113 309.507 213.113 309.211C213.113 309.103 213.096 309 213.061 308.901C213.032 308.798 212.98 308.702 212.906 308.614C212.833 308.525 212.727 308.441 212.589 308.363C212.456 308.284 212.287 308.213 212.08 308.149L209.32 307.337C209.113 307.278 208.872 307.194 208.596 307.086C208.326 306.978 208.062 306.823 207.807 306.621C207.551 306.419 207.337 306.153 207.164 305.824C206.997 305.489 206.913 305.068 206.913 304.562C206.913 303.848 207.093 303.255 207.452 302.783C207.811 302.311 208.291 301.959 208.891 301.728C209.492 301.496 210.156 301.383 210.884 301.388C211.617 301.398 212.272 301.523 212.847 301.764C213.423 302.006 213.905 302.357 214.294 302.82C214.683 303.277 214.963 303.838 215.135 304.503L212.966 304.872C212.887 304.527 212.742 304.237 212.53 304.001C212.319 303.765 212.065 303.585 211.77 303.462C211.48 303.339 211.175 303.273 210.855 303.263C210.54 303.253 210.242 303.297 209.962 303.396C209.686 303.489 209.46 303.627 209.283 303.809C209.11 303.991 209.024 304.207 209.024 304.458C209.024 304.69 209.096 304.879 209.238 305.027C209.381 305.169 209.561 305.285 209.777 305.374C209.994 305.462 210.215 305.536 210.441 305.595L212.287 306.097C212.562 306.171 212.867 306.269 213.202 306.392C213.536 306.51 213.856 306.677 214.161 306.894C214.471 307.105 214.725 307.386 214.921 307.735C215.123 308.085 215.224 308.527 215.224 309.064C215.224 309.635 215.103 310.134 214.862 310.562C214.626 310.985 214.306 311.337 213.903 311.617C213.499 311.893 213.042 312.1 212.53 312.237C212.023 312.375 211.499 312.444 210.958 312.444Z" fill="#111111"/>
<rect opacity="0.4" x="210.078" y="194.641" width="0.843489" height="29.5045" fill="#111111"/>
<rect x="210.078" y="33.207" width="0.843489" height="15.1738" fill="#111111"/>
<rect x="210.078" y="33.207" width="0.843489" height="15.1738" fill="#111111"/>
<rect x="210.078" y="33.207" width="0.843489" height="15.1738" fill="#222222"/>
<rect x="210.078" y="33.207" width="0.843489" height="15.1738" fill="#222222"/>
<rect x="34" y="210.023" width="0.843489" height="15.1828" transform="rotate(-90 34 210.023)" fill="#222222"/>
<rect x="34" y="210.023" width="0.843489" height="15.1828" transform="rotate(-90 34 210.023)" fill="#222222"/>
<rect x="210.078" y="370.828" width="0.843489" height="15.1738" fill="#222222"/>
<rect x="210.078" y="370.828" width="0.843489" height="15.1738" fill="#222222"/>
<rect x="371.816" y="210.023" width="0.843489" height="15.1828" transform="rotate(-90 371.816 210.023)" fill="#222222"/>
<rect x="371.816" y="210.023" width="0.843489" height="15.1828" transform="rotate(-90 371.816 210.023)" fill="#222222"/>
<g opacity="0.4" filter="url(#filter0_d_3712_49247)">
<path fill-rule="evenodd" clip-rule="evenodd" d="M210.058 33.0005C210.205 33.0002 210.353 33 210.5 33C210.647 33 210.795 33.0002 210.942 33.0005L210.904 48.5958C210.769 48.5954 210.635 48.5953 210.5 48.5953C210.365 48.5953 210.231 48.5954 210.096 48.5958L210.058 33.0005ZM216.228 33.0912C216.521 33.1005 216.813 33.1106 217.105 33.1213L216.531 48.706C216.264 48.6962 215.997 48.6871 215.73 48.6785L216.228 33.0912ZM203.895 33.1213C204.187 33.1106 204.479 33.1005 204.772 33.0912L205.27 48.6785C205.002 48.6871 204.735 48.6962 204.469 48.706L203.895 33.1213ZM222.377 33.3934C222.67 33.4128 222.963 33.433 223.256 33.4539L222.144 49.0095C221.877 48.9905 221.609 48.972 221.342 48.9543L222.377 33.3934ZM197.744 33.454C198.037 33.433 198.33 33.4128 198.623 33.3934L199.658 48.9543C199.391 48.972 199.123 48.9905 198.856 49.0095L197.744 33.454ZM228.506 33.9072C228.799 33.9369 229.092 33.9673 229.384 33.9985L227.733 49.5061C227.466 49.4778 227.199 49.45 226.932 49.4229L228.506 33.9072ZM191.615 33.9985C191.908 33.9673 192.201 33.9369 192.494 33.9072L194.068 49.4229C193.801 49.45 193.534 49.4778 193.267 49.5062L191.615 33.9985ZM234.632 34.636C234.922 34.6757 235.212 34.716 235.502 34.7571L233.31 50.1978C233.046 50.1603 232.782 50.1235 232.517 50.0874L234.632 34.636ZM185.498 34.7571C185.788 34.7161 186.078 34.6757 186.368 34.636L188.483 50.0874C188.218 50.1236 187.954 50.1604 187.69 50.1978L185.498 34.7571ZM240.722 35.5771C241.011 35.627 241.3 35.6776 241.589 35.729L238.858 51.0835C238.595 51.0367 238.331 50.9906 238.067 50.9451L240.722 35.5771ZM179.411 35.729C179.7 35.6776 179.989 35.627 180.278 35.5771L182.932 50.9451C182.669 50.9906 182.405 51.0368 182.142 51.0835L179.411 35.729ZM246.769 36.7297C247.058 36.7898 247.345 36.8507 247.633 36.9123L244.365 52.1617C244.103 52.1056 243.841 52.0501 243.578 51.9953L246.769 36.7297ZM173.367 36.9123C173.654 36.8507 173.942 36.7898 174.23 36.7297L177.422 51.9953C177.159 52.0502 176.897 52.1056 176.635 52.1617L173.367 36.9123ZM252.782 38.0957C253.067 38.1656 253.351 38.2362 253.635 38.3075L249.833 53.4328C249.574 53.3678 249.315 53.3035 249.056 53.2398L252.782 38.0957ZM167.365 38.3075C167.649 38.2362 167.933 38.1656 168.218 38.0957L171.944 53.2398C171.685 53.3035 171.426 53.3678 171.167 53.4328L167.365 38.3075ZM258.742 39.6719C259.025 39.7519 259.307 39.8327 259.588 39.914L255.256 54.8963C255 54.8221 254.743 54.7486 254.485 54.6757L258.742 39.6719ZM161.411 39.9141C161.693 39.8327 161.975 39.752 162.258 39.6719L166.515 54.6757C166.257 54.7486 166 54.8221 165.744 54.8963L161.411 39.9141ZM264.639 41.4554C264.919 41.5455 265.198 41.6362 265.477 41.7276L260.621 56.5483C260.366 56.465 260.112 56.3824 259.857 56.3003L264.639 41.4554ZM155.522 41.7276C155.802 41.6362 156.081 41.5455 156.361 41.4555L161.143 56.3004C160.888 56.3824 160.634 56.465 160.379 56.5483L155.522 41.7276ZM270.47 43.4454C270.746 43.5449 271.021 43.6451 271.296 43.7459L265.921 58.3868C265.671 58.295 265.42 58.2037 265.169 58.1131L270.47 43.4454ZM149.704 43.746C149.979 43.6451 150.254 43.5449 150.53 43.4454L155.831 58.1131C155.58 58.2037 155.329 58.295 155.079 58.3869L149.704 43.746ZM276.232 45.6407C276.504 45.7499 276.776 45.8598 277.047 45.9704L271.16 60.4133C270.913 60.3126 270.665 60.2124 270.417 60.1129L276.232 45.6407ZM143.953 45.9704C144.224 45.8598 144.496 45.7499 144.768 45.6407L150.583 60.1129C150.335 60.2125 150.087 60.3126 149.84 60.4133L143.953 45.9704ZM281.909 48.0355C282.178 48.1544 282.446 48.2739 282.714 48.394L276.323 62.6214C276.079 62.512 275.835 62.4031 275.59 62.2948L281.909 48.0355ZM138.286 48.3941C138.554 48.2739 138.822 48.1544 139.091 48.0356L145.41 62.2948C145.165 62.4031 144.921 62.512 144.677 62.6214L138.286 48.3941ZM287.497 50.627C287.761 50.7553 288.025 50.8842 288.289 51.0138L281.403 65.0085C281.163 64.8904 280.922 64.7729 280.681 64.656L287.497 50.627ZM132.711 51.0138C132.975 50.8842 133.239 50.7553 133.503 50.627L140.319 64.656C140.078 64.7729 139.837 64.8904 139.597 65.0085L132.711 51.0138ZM292.994 53.4143C293.253 53.5515 293.512 53.6892 293.77 53.8276L286.398 67.5728C286.162 67.4467 285.927 67.3211 285.691 67.1961L292.994 53.4143ZM127.23 53.8276C127.488 53.6892 127.747 53.5515 128.006 53.4143L135.309 67.1961C135.073 67.3211 134.837 67.4467 134.602 67.5728L127.23 53.8276ZM298.389 56.3916C298.643 56.5378 298.897 56.6847 299.15 56.8321L291.302 70.3112C291.071 70.1768 290.839 70.043 290.607 69.9097L298.389 56.3916ZM121.85 56.8321C122.103 56.6847 122.357 56.5378 122.611 56.3916L130.393 69.9097C130.161 70.043 129.929 70.1768 129.698 70.3112L121.85 56.8321ZM116.58 60.0215C116.828 59.8652 117.077 59.7095 117.326 59.5544L125.575 72.7927C125.347 72.9341 125.121 73.0761 124.894 73.2185L116.58 60.0215ZM303.674 59.5544C303.923 59.7095 304.172 59.8652 304.42 60.0215L296.106 73.2186C295.879 73.0761 295.653 72.9341 295.425 72.7927L303.674 59.5544ZM111.425 63.3918C111.668 63.227 111.911 63.0629 112.154 62.8993L120.86 75.8422C120.638 75.9914 120.416 76.1411 120.195 76.2913L111.425 63.3918ZM308.845 62.8993C309.089 63.0629 309.332 63.227 309.575 63.3918L300.805 76.2913C300.584 76.1411 300.362 75.9914 300.14 75.8422L308.845 62.8993ZM106.39 66.9406C106.627 66.7676 106.864 66.5951 107.101 66.4232L116.252 79.0554C116.036 79.2121 115.819 79.3694 115.604 79.5272L106.39 66.9406ZM313.899 66.4232C314.136 66.5951 314.373 66.7676 314.61 66.9407L305.397 79.5272C305.181 79.3694 304.964 79.2122 304.748 79.0554L313.899 66.4232ZM101.482 70.6618C101.712 70.4805 101.944 70.2999 102.175 70.1198L111.76 82.4263C111.549 82.5906 111.338 82.7553 111.128 82.9206L101.482 70.6618ZM318.825 70.1198C319.057 70.2999 319.288 70.4806 319.518 70.6618L309.872 82.9206C309.662 82.7553 309.451 82.5906 309.24 82.4263L318.825 70.1198ZM96.7069 74.5505C96.9311 74.3614 97.1558 74.1727 97.3809 73.9847L107.388 85.9511C107.182 86.1226 106.977 86.2946 106.773 86.4672L96.7069 74.5505ZM323.619 73.9847C323.844 74.1728 324.069 74.3614 324.293 74.5505L314.227 86.4672C314.023 86.2947 313.818 86.1226 313.612 85.9511L323.619 73.9847ZM92.0699 78.6026C92.2873 78.4058 92.5052 78.2097 92.7236 78.014L103.14 89.6261C102.941 89.8045 102.742 89.9835 102.544 90.1629L92.0699 78.6026ZM328.276 78.014C328.495 78.2097 328.713 78.4059 328.93 78.6026L318.456 90.1629C318.258 89.9835 318.059 89.8046 317.86 89.6261L328.276 78.014ZM87.5762 82.8132C87.7866 82.6091 87.9976 82.4054 88.2091 82.2023L99.0223 93.4462C98.8294 93.6315 98.6369 93.8172 98.445 94.0035L87.5762 82.8132ZM332.791 82.2023C333.002 82.4054 333.213 82.6091 333.424 82.8133L322.555 94.0035C322.363 93.8173 322.171 93.6315 321.978 93.4462L332.791 82.2023ZM83.2316 87.1768C83.4348 86.9655 83.6386 86.7546 83.8429 86.5443L95.0398 97.4066C94.8535 97.5985 94.6676 97.7908 94.4822 97.9836L83.2316 87.1768ZM337.157 86.5443C337.361 86.7546 337.565 86.9655 337.768 87.1769L326.518 97.9836C326.332 97.7908 326.147 97.5985 325.96 97.4066L337.157 86.5443ZM79.0408 91.6886C79.2366 91.4704 79.4329 91.2526 79.6297 91.0354L91.197 101.503C91.0174 101.701 90.8384 101.9 90.6598 102.099L79.0408 91.6886ZM341.37 91.0354C341.567 91.2527 341.763 91.4704 341.959 91.6887L330.34 102.099C330.162 101.9 329.983 101.701 329.803 101.503L341.37 91.0354ZM75.0091 96.3432C75.1973 96.1182 75.386 95.8937 75.5753 95.6696L87.499 105.73C87.3264 105.934 87.1543 106.139 86.9827 106.344L75.0091 96.3432ZM345.425 95.6696C345.614 95.8937 345.803 96.1182 345.991 96.3432L334.017 106.344C333.846 106.139 333.674 105.934 333.501 105.73L345.425 95.6696ZM71.1419 101.134C71.3221 100.903 71.5029 100.672 71.6842 100.442L83.9503 110.082C83.785 110.292 83.6201 110.503 83.4558 110.714L71.1419 101.134ZM349.316 100.442C349.497 100.672 349.678 100.903 349.858 101.134L337.544 110.714C337.38 110.503 337.215 110.292 337.05 110.082L349.316 100.442ZM67.4431 106.058C67.6151 105.82 67.7877 105.583 67.9609 105.347L80.5549 114.555C80.397 114.771 80.2397 114.987 80.0828 115.203L67.4431 106.058ZM353.039 105.347C353.212 105.583 353.385 105.82 353.557 106.058L340.917 115.203C340.76 114.987 340.603 114.771 340.445 114.555L353.039 105.347ZM63.9171 111.108C64.0808 110.865 64.245 110.622 64.4099 110.379L77.3171 119.144C77.1668 119.365 77.017 119.586 76.8677 119.808L63.9171 111.108ZM356.59 110.379C356.755 110.622 356.919 110.865 357.083 111.108L344.132 119.808C343.983 119.586 343.833 119.365 343.683 119.144L356.59 110.379ZM60.5702 116.276C60.7254 116.027 60.8812 115.779 61.0376 115.531L74.2425 123.84C74.0999 124.066 73.9579 124.293 73.8164 124.52L60.5702 116.276ZM359.962 115.531C360.119 115.779 360.275 116.027 360.43 116.276L347.184 124.52C347.042 124.293 346.9 124.066 346.758 123.84L359.962 115.531ZM57.4055 121.559C57.5518 121.305 57.6988 121.051 57.8463 120.797L71.3334 128.641C71.199 128.872 71.065 129.104 70.9317 129.335L57.4055 121.559ZM363.331 121.103C363.419 121.255 363.507 121.407 363.594 121.559L350.068 129.335C349.935 129.104 349.801 128.872 349.667 128.641L363.154 120.797C363.213 120.899 363.272 121.001 363.331 121.103ZM366.16 126.175C366.298 126.433 366.436 126.691 366.574 126.95L352.784 134.249C352.658 134.013 352.533 133.778 352.407 133.542L366.16 126.175ZM54.4265 126.95C54.5637 126.691 54.7016 126.433 54.84 126.175L68.5934 133.542C68.4672 133.778 68.3415 134.013 68.2165 134.249L54.4265 126.95ZM368.975 131.652C369.105 131.916 369.234 132.18 369.363 132.444L355.325 139.255C355.208 139.015 355.091 138.774 354.972 138.534L368.975 131.652ZM51.6375 132.444C51.7658 132.18 51.8948 131.916 52.0245 131.652L66.0275 138.534C65.9094 138.774 65.7918 139.015 65.6749 139.255L51.6375 132.444ZM371.597 137.224C371.717 137.492 371.837 137.76 371.955 138.028L357.688 144.344C357.579 144.099 357.47 143.855 357.361 143.611L371.597 137.224ZM49.0445 138.028C49.1634 137.76 49.283 137.492 49.4032 137.224L63.6391 143.611C63.5295 143.855 63.4206 144.099 63.3122 144.344L49.0445 138.028ZM374.022 142.887C374.132 143.159 374.242 143.43 374.352 143.702L359.871 149.513C359.771 149.265 359.671 149.018 359.57 148.771L374.022 142.887ZM46.6482 143.702C46.7575 143.43 46.8675 143.159 46.9781 142.887L61.4296 148.771C61.3288 149.018 61.2286 149.265 61.1291 149.513L46.6482 143.702ZM376.248 148.635C376.349 148.91 376.449 149.185 376.548 149.461L361.872 154.759C361.816 154.603 361.759 154.448 361.702 154.292C361.668 154.197 361.633 154.102 361.598 154.007L376.248 148.635ZM44.4516 149.461C44.5512 149.185 44.6514 148.91 44.7523 148.635L59.402 154.007C59.31 154.257 59.2187 154.508 59.128 154.759L44.4516 149.461ZM378.414 154.9C378.456 155.029 378.498 155.159 378.54 155.288L363.686 160.068C363.637 159.918 363.589 159.768 363.54 159.618C363.506 159.513 363.472 159.409 363.438 159.304L378.267 154.45C378.316 154.6 378.365 154.75 378.414 154.9ZM42.4605 155.288C42.5506 155.009 42.6413 154.729 42.7328 154.45L57.5623 159.304C57.479 159.558 57.3963 159.813 57.3142 160.068L42.4605 155.288ZM380.2 160.748C380.242 160.892 380.283 161.037 380.324 161.181L365.311 165.436C365.238 165.179 365.165 164.922 365.091 164.665L380.082 160.336C380.122 160.473 380.161 160.61 380.2 160.748ZM40.6759 161.182C40.756 160.899 40.8367 160.617 40.9182 160.336L55.9093 164.665C55.8351 164.922 55.7616 165.179 55.6886 165.436L40.6759 161.182ZM381.689 166.286C381.761 166.57 381.831 166.854 381.901 167.138L366.748 170.862C366.684 170.603 366.62 170.344 366.555 170.086L381.689 166.286ZM39.0987 167.138C39.1687 166.854 39.2393 166.57 39.3106 166.286L54.4449 170.086C54.3799 170.344 54.3156 170.603 54.2519 170.862L39.0987 167.138ZM383.085 172.284C383.147 172.571 383.208 172.859 383.268 173.147L367.993 176.336C367.938 176.074 367.883 175.812 367.827 175.55L383.085 172.284ZM37.7319 173.147C37.7921 172.859 37.853 172.571 37.9146 172.284L53.1731 175.55C53.117 175.812 53.0615 176.074 53.0066 176.336L37.7319 173.147ZM384.269 178.324C384.321 178.613 384.371 178.902 384.421 179.191L369.044 181.844C368.999 181.58 368.953 181.317 368.906 181.054L384.269 178.324ZM36.5786 179.191C36.6286 178.902 36.6792 178.613 36.7306 178.324L52.0943 181.054C52.0475 181.317 52.0013 181.58 51.9558 181.844L36.5786 179.191ZM385.242 184.408C385.283 184.697 385.323 184.987 385.363 185.277L369.902 187.391C369.866 187.126 369.829 186.862 369.792 186.598L385.242 184.408ZM35.637 185.277C35.6767 184.987 35.7171 184.698 35.7582 184.408L51.208 186.598C51.1706 186.862 51.1337 187.126 51.0975 187.391L35.637 185.277ZM386.001 190.522C386.032 190.814 386.063 191.107 386.092 191.4L370.567 192.973C370.545 192.752 370.522 192.532 370.499 192.312L370.484 192.172L386.001 190.522ZM34.9078 191.4C34.9375 191.107 34.9679 190.814 34.9991 190.522L50.516 192.172C50.4876 192.439 50.4598 192.706 50.4327 192.973L34.9078 191.4ZM386.546 196.647C386.567 196.939 386.587 197.232 386.606 197.525L371.036 198.56C371.018 198.292 371 198.025 370.981 197.758L386.546 196.647ZM34.3936 197.525C34.4131 197.232 34.4333 196.939 34.4542 196.647L50.0191 197.758C50 198.025 49.9815 198.292 49.9637 198.56L34.3936 197.525ZM386.879 202.793C386.889 203.086 386.899 203.378 386.909 203.67L371.312 204.168C371.304 203.901 371.294 203.634 371.285 203.367L386.879 202.793ZM34.0913 203.67C34.1006 203.378 34.1107 203.086 34.1214 202.794L49.7154 203.367C49.7056 203.634 49.6964 203.901 49.6879 204.168L34.0913 203.67ZM386.999 208.953C387 209.1 387 209.248 387 209.395C387 209.482 387 209.57 387 209.657L386.999 209.837L371.395 209.798C371.395 209.664 371.395 209.53 371.395 209.395C371.395 209.26 371.395 209.126 371.395 208.991L386.999 208.953ZM34 209.395C34 209.248 34.0002 209.1 34.0005 208.953L49.605 208.992C49.6047 209.126 49.6045 209.26 49.6045 209.395C49.6045 209.53 49.6047 209.664 49.605 209.799L34.0005 209.837C34.0002 209.69 34 209.542 34 209.395ZM386.909 215.12C386.899 215.412 386.889 215.704 386.879 215.996L371.285 215.423C371.294 215.156 371.304 214.889 371.312 214.622L386.909 215.12ZM34.1214 215.997C34.1107 215.704 34.1006 215.412 34.0913 215.12L49.6879 214.622C49.6964 214.889 49.7056 215.156 49.7154 215.423L34.1214 215.997ZM386.606 221.265C386.587 221.558 386.567 221.851 386.546 222.143L370.981 221.032C371 220.765 371.018 220.498 371.036 220.23L386.606 221.265ZM34.4542 222.143C34.4333 221.851 34.4131 221.558 34.3936 221.265L49.9638 220.23C49.9815 220.498 50 220.765 50.0191 221.032L34.4542 222.143ZM386.035 227.943C386.024 228.052 386.012 228.16 386.001 228.268L370.484 226.618C370.512 226.351 370.54 226.084 370.567 225.817L386.092 227.39C386.074 227.574 386.055 227.759 386.035 227.943ZM34.9991 228.268C34.9679 227.976 34.9375 227.683 34.9078 227.39L50.4327 225.817C50.4598 226.084 50.4876 226.351 50.516 226.618L34.9991 228.268ZM385.363 233.513C385.323 233.803 385.283 234.092 385.242 234.382L369.792 232.192C369.829 231.928 369.866 231.664 369.902 231.399L385.363 233.513ZM35.7582 234.382C35.7171 234.093 35.6767 233.803 35.637 233.513L51.0976 231.399C51.1337 231.664 51.1706 231.928 51.208 232.192L35.7582 234.382ZM384.421 239.599C384.371 239.888 384.321 240.177 384.269 240.466L368.906 237.736C368.934 237.58 368.961 237.423 368.989 237.266C369.007 237.159 369.026 237.053 369.044 236.946L384.421 239.599ZM36.7306 240.466C36.6792 240.177 36.6286 239.888 36.5786 239.599L51.9558 236.946C52.0013 237.21 52.0475 237.473 52.0943 237.736L36.7306 240.466ZM383.268 245.643C383.208 245.931 383.147 246.219 383.085 246.506L367.827 243.24C367.883 242.978 367.939 242.716 367.993 242.454L383.268 245.643ZM37.9146 246.506C37.853 246.219 37.7921 245.931 37.7319 245.643L53.0067 242.454C53.0615 242.716 53.117 242.978 53.1731 243.24L37.9146 246.506ZM381.901 251.652C381.831 251.936 381.761 252.22 381.689 252.504L366.555 248.704C366.62 248.446 366.684 248.187 366.748 247.928L381.901 251.652ZM39.3106 252.504C39.2393 252.22 39.1687 251.936 39.0987 251.652L54.2519 247.928C54.3156 248.187 54.38 248.446 54.4449 248.704L39.3106 252.504ZM380.324 257.608C380.244 257.891 380.163 258.173 380.082 258.454L365.091 254.125C365.165 253.868 365.238 253.611 365.311 253.354L380.324 257.608ZM40.9182 258.454C40.8367 258.173 40.756 257.891 40.6759 257.608L55.6886 253.354C55.7616 253.611 55.8351 253.868 55.9093 254.125L40.9182 258.454ZM378.54 263.502C378.449 263.781 378.359 264.061 378.267 264.34L363.438 259.486C363.521 259.232 363.604 258.977 363.686 258.722L378.54 263.502ZM42.7328 264.34C42.6414 264.061 42.5506 263.781 42.4605 263.502L57.3142 258.722C57.3963 258.977 57.479 259.232 57.5623 259.486L42.7328 264.34ZM376.548 269.329C376.449 269.605 376.349 269.88 376.248 270.155L361.598 264.783C361.69 264.533 361.781 264.282 361.872 264.031L376.548 269.329ZM44.7524 270.155C44.6515 269.88 44.5512 269.605 44.4516 269.329L59.128 264.031C59.2187 264.282 59.31 264.533 59.402 264.783L44.7524 270.155ZM374.352 275.088C374.242 275.36 374.133 275.631 374.022 275.903L359.57 270.019C359.671 269.772 359.771 269.525 359.871 269.277L374.352 275.088ZM46.9781 275.903C46.8675 275.631 46.7575 275.36 46.6482 275.088L61.1291 269.277C61.2287 269.525 61.3288 269.772 61.4296 270.019L46.9781 275.903ZM371.956 280.762C371.837 281.03 371.717 281.298 371.597 281.566L357.361 275.179C357.47 274.935 357.579 274.691 357.688 274.446L371.956 280.762ZM49.4032 281.566C49.283 281.298 49.1634 281.03 49.0445 280.762L63.3122 274.446C63.4206 274.691 63.5295 274.935 63.6391 275.179L49.4032 281.566ZM52.0245 287.138C51.8948 286.874 51.7658 286.61 51.6375 286.346L65.6749 279.535C65.7918 279.775 65.9094 280.016 66.0275 280.256L52.0245 287.138ZM369.363 286.346C369.234 286.61 369.105 286.874 368.976 287.138L354.972 280.256C355.091 280.016 355.208 279.775 355.325 279.535L369.363 286.346ZM54.84 292.615C54.7016 292.357 54.5637 292.099 54.4265 291.84L68.2165 284.541C68.3415 284.777 68.4672 285.012 68.5934 285.248L54.84 292.615ZM366.574 291.84C366.436 292.099 366.298 292.357 366.16 292.615L352.407 285.248C352.533 285.012 352.658 284.777 352.784 284.541L366.574 291.84ZM57.8463 297.993C57.6988 297.739 57.5518 297.485 57.4055 297.231L70.9317 289.455C71.065 289.686 71.199 289.918 71.3334 290.149L57.8463 297.993ZM363.594 297.231C363.448 297.485 363.301 297.739 363.154 297.993L349.667 290.149C349.801 289.918 349.935 289.686 350.068 289.455L363.594 297.231ZM61.0375 303.259C60.8812 303.011 60.7254 302.763 60.5702 302.514L73.8164 294.27C73.9579 294.497 74.0999 294.724 74.2425 294.95L61.0375 303.259ZM360.43 302.514C360.275 302.763 360.119 303.011 359.962 303.259L346.757 294.95C346.9 294.724 347.042 294.497 347.184 294.27L360.43 302.514ZM64.4099 308.411C64.245 308.168 64.0808 307.925 63.9171 307.682L76.8677 298.982C77.017 299.204 77.1668 299.425 77.3171 299.646L64.4099 308.411ZM357.083 307.682C356.919 307.925 356.755 308.168 356.59 308.411L343.683 299.646C343.833 299.425 343.983 299.204 344.132 298.982L357.083 307.682ZM67.9608 313.443C67.7877 313.207 67.6151 312.97 67.4431 312.732L80.0828 303.587C80.2396 303.803 80.397 304.019 80.5549 304.235L67.9608 313.443ZM353.281 313.113C353.2 313.223 353.12 313.333 353.039 313.443L340.445 304.235C340.603 304.019 340.76 303.803 340.917 303.587L353.557 312.732C353.465 312.859 353.373 312.986 353.281 313.113ZM71.6842 318.348C71.5029 318.118 71.3221 317.887 71.1419 317.656L83.4557 308.076C83.6201 308.287 83.7849 308.498 83.9503 308.708L71.6842 318.348ZM349.858 317.656C349.678 317.887 349.497 318.118 349.316 318.348L337.05 308.708C337.215 308.498 337.38 308.287 337.544 308.076L349.858 317.656ZM75.5752 323.12C75.386 322.896 75.1973 322.672 75.0091 322.447L86.9826 312.446C87.1543 312.651 87.3264 312.856 87.499 313.06L75.5752 323.12ZM345.991 322.447C345.803 322.672 345.614 322.896 345.425 323.12L333.501 313.06C333.674 312.856 333.846 312.651 334.017 312.446L345.991 322.447ZM79.6297 327.755C79.4329 327.537 79.2366 327.32 79.0408 327.101L90.6598 316.691C90.8384 316.89 91.0174 317.089 91.1969 317.287L79.6297 327.755ZM341.565 327.54C341.5 327.611 341.435 327.683 341.37 327.755L329.803 317.287C329.983 317.089 330.162 316.89 330.34 316.691L341.959 327.101C341.828 327.248 341.696 327.394 341.565 327.54ZM83.8429 332.246C83.6386 332.035 83.4348 331.824 83.2315 331.613L94.4822 320.806C94.6676 320.999 94.8535 321.191 95.0398 321.383L83.8429 332.246ZM337.768 331.613C337.565 331.825 337.361 332.035 337.157 332.246L325.96 321.383C326.147 321.192 326.332 320.999 326.518 320.806L337.768 331.613ZM88.2091 336.588C87.9976 336.385 87.7866 336.181 87.5761 335.977L98.4449 324.786C98.6369 324.973 98.8294 325.158 99.0223 325.344L88.2091 336.588ZM333.424 335.977C333.213 336.181 333.002 336.385 332.791 336.588L321.978 325.344C322.171 325.159 322.363 324.973 322.555 324.787L333.424 335.977ZM92.5357 340.607C92.3802 340.468 92.2249 340.328 92.0699 340.187L102.544 328.627C102.742 328.806 102.941 328.985 103.14 329.164L92.7236 340.776C92.6609 340.72 92.5983 340.664 92.5357 340.607ZM328.93 340.187C328.713 340.384 328.495 340.58 328.276 340.776L317.86 329.164C318.059 328.985 318.258 328.807 318.456 328.627L328.93 340.187ZM97.3809 344.805C97.1558 344.617 96.9311 344.429 96.7069 344.239L106.773 332.323C106.977 332.495 107.182 332.667 107.388 332.839L97.3809 344.805ZM324.293 344.239C324.069 344.429 323.844 344.617 323.619 344.805L313.612 332.839C313.66 332.799 313.708 332.758 313.757 332.718C313.914 332.587 314.07 332.455 314.227 332.323L324.293 344.239ZM102.175 348.67C101.943 348.49 101.712 348.309 101.482 348.128L111.128 335.869C111.338 336.035 111.549 336.199 111.76 336.364L102.175 348.67ZM319.518 348.128C319.288 348.309 319.056 348.49 318.825 348.67L309.24 336.364C309.451 336.199 309.662 336.035 309.872 335.869L319.518 348.128ZM107.101 352.367C106.864 352.195 106.627 352.022 106.39 351.849L115.603 339.263C115.819 339.421 116.036 339.578 116.252 339.735L107.101 352.367ZM314.61 351.849C314.373 352.022 314.136 352.195 313.899 352.367L304.748 339.735C304.964 339.578 305.181 339.421 305.396 339.263L314.61 351.849ZM111.704 355.587C111.611 355.524 111.518 355.461 111.425 355.398L120.195 342.499C120.416 342.649 120.638 342.799 120.86 342.948L112.154 355.891C112.004 355.79 111.854 355.688 111.704 355.587ZM309.575 355.398C309.332 355.563 309.089 355.727 308.845 355.891L300.14 342.948C300.362 342.799 300.584 342.649 300.805 342.499L309.575 355.398ZM117.326 359.236C117.077 359.081 116.828 358.925 116.58 358.769L124.894 345.571C125.121 345.714 125.347 345.856 125.575 345.997L117.326 359.236ZM304.42 358.769C304.172 358.925 303.923 359.081 303.674 359.236L295.425 345.997C295.653 345.856 295.879 345.714 296.106 345.571L304.42 358.769ZM122.611 362.398C122.357 362.252 122.103 362.105 121.85 361.958L129.698 348.479C129.929 348.613 130.161 348.747 130.393 348.88L122.611 362.398ZM299.15 361.958C298.897 362.105 298.643 362.252 298.389 362.398L290.607 348.88C290.839 348.747 291.071 348.613 291.302 348.479L299.15 361.958ZM293.77 364.962C293.512 365.101 293.253 365.239 292.994 365.376L285.691 351.594C285.927 351.469 286.163 351.343 286.398 351.217L293.77 364.962ZM128.006 365.376C127.747 365.239 127.488 365.101 127.23 364.962L134.602 351.217C134.837 351.343 135.073 351.469 135.309 351.594L128.006 365.376ZM133.503 368.163C133.239 368.035 132.975 367.906 132.711 367.776L139.597 353.782C139.837 353.9 140.078 354.017 140.319 354.134L133.503 368.163ZM288.289 367.776C288.025 367.906 287.761 368.035 287.497 368.163L280.681 354.134C280.922 354.017 281.163 353.9 281.403 353.782L288.289 367.776ZM138.677 370.571C138.547 370.513 138.416 370.454 138.286 370.396L144.677 356.169C144.921 356.278 145.165 356.387 145.41 356.495L139.091 370.754C138.953 370.693 138.815 370.632 138.677 370.571ZM282.714 370.396C282.446 370.516 282.178 370.636 281.909 370.754L275.59 356.495C275.835 356.387 276.079 356.278 276.323 356.169L282.714 370.396ZM144.347 372.979C144.215 372.926 144.084 372.873 143.953 372.82L149.84 358.377C149.983 358.435 150.126 358.493 150.269 358.551C150.373 358.593 150.478 358.635 150.583 358.677L144.768 373.149C144.628 373.093 144.487 373.036 144.347 372.979ZM277.047 372.82C276.776 372.93 276.504 373.04 276.232 373.149L270.417 358.677C270.665 358.578 270.913 358.477 271.16 358.377L277.047 372.82ZM150.216 375.231C150.045 375.169 149.874 375.107 149.704 375.044L155.079 360.403C155.329 360.495 155.58 360.586 155.831 360.677L150.53 375.345C150.425 375.307 150.321 375.269 150.216 375.231ZM271.296 375.044C271.021 375.145 270.746 375.245 270.47 375.345L265.169 360.677C265.42 360.586 265.671 360.495 265.921 360.403L271.296 375.044ZM264.858 377.264C264.785 377.287 264.712 377.311 264.639 377.335L259.857 362.49C260.112 362.408 260.366 362.325 260.621 362.242L265.477 377.062C265.271 377.13 265.065 377.197 264.858 377.264ZM156.361 377.335C156.081 377.245 155.802 377.154 155.523 377.062L160.379 362.242C160.634 362.325 160.888 362.408 161.143 362.49L156.361 377.335ZM162.258 379.118C161.975 379.038 161.693 378.957 161.412 378.876L165.744 363.894C166 363.968 166.257 364.041 166.515 364.114L162.258 379.118ZM259.589 378.876C259.307 378.957 259.025 379.038 258.742 379.118L254.485 364.114C254.572 364.09 254.658 364.065 254.745 364.041C254.915 363.992 255.086 363.943 255.256 363.894L259.589 378.876ZM253.635 380.482C253.351 380.554 253.067 380.624 252.782 380.694L249.056 365.55C249.315 365.486 249.574 365.422 249.833 365.357L253.635 380.482ZM168.218 380.694C167.933 380.624 167.649 380.554 167.365 380.483L171.167 365.357C171.426 365.422 171.685 365.486 171.944 365.55L168.218 380.694ZM247.633 381.878C247.346 381.939 247.058 382 246.77 382.06L243.578 366.795C243.841 366.74 244.103 366.684 244.365 366.628L247.633 381.878ZM174.231 382.06C173.942 382 173.655 381.939 173.367 381.878L176.635 366.628C176.897 366.684 177.159 366.74 177.422 366.795L174.231 382.06ZM241.589 383.061C241.3 383.112 241.011 383.163 240.722 383.213L238.068 367.845C238.331 367.799 238.595 367.753 238.858 367.706L241.589 383.061ZM180.278 383.213C179.989 383.163 179.7 383.112 179.411 383.061L182.142 367.706C182.405 367.753 182.669 367.799 182.933 367.845L180.278 383.213ZM186.368 384.154C186.078 384.114 185.788 384.074 185.498 384.033L187.69 368.592C187.954 368.63 188.218 368.666 188.483 368.703L186.368 384.154ZM235.502 384.033C235.212 384.074 234.922 384.114 234.632 384.154L232.517 368.703C232.782 368.666 233.046 368.63 233.31 368.592L235.502 384.033ZM229.385 384.792C229.092 384.823 228.799 384.853 228.506 384.883L226.932 369.367C227.199 369.34 227.466 369.312 227.733 369.284L229.385 384.792ZM192.494 384.883C192.201 384.853 191.908 384.823 191.616 384.792L193.267 369.284C193.534 369.312 193.801 369.34 194.068 369.367L192.494 384.883ZM198.623 385.397C198.33 385.377 198.037 385.357 197.744 385.336L198.856 369.78C199.123 369.8 199.391 369.818 199.658 369.836L198.623 385.397ZM222.586 385.383C222.517 385.387 222.447 385.392 222.377 385.397L221.342 369.836C221.609 369.818 221.877 369.8 222.144 369.78L223.256 385.336C223.033 385.352 222.81 385.367 222.586 385.383ZM204.278 385.682C204.15 385.678 204.022 385.673 203.895 385.669L204.469 370.084C204.736 370.094 205.003 370.103 205.27 370.111L204.772 385.699C204.607 385.694 204.443 385.688 204.278 385.682ZM217.105 385.669C216.813 385.679 216.521 385.689 216.228 385.699L215.73 370.111C215.998 370.103 216.265 370.094 216.531 370.084L217.105 385.669ZM210.5 385.79C210.353 385.79 210.205 385.79 210.058 385.789L210.096 370.194C210.231 370.195 210.365 370.195 210.5 370.195C210.635 370.195 210.769 370.195 210.904 370.194L210.942 385.789C210.795 385.79 210.647 385.79 210.5 385.79Z" fill="#111111"/>
</g>
<rect opacity="0.4" x="195.738" y="209.812" width="0.843489" height="29.5221" transform="rotate(-90 195.738 209.812)" fill="#111111"/>
<path d="M210 0L218.66 15L201.34 15L210 0Z" fill="#FF0000"/>
<defs>
<filter id="filter0_d_3712_49247" x="32.313" y="33" width="356.374" height="356.163" filterUnits="userSpaceOnUse" color-interpolation-filters="sRGB">
<feFlood flood-opacity="0" result="BackgroundImageFix"/>
<feColorMatrix in="SourceAlpha" type="matrix" values="0 0 0 0 0 0 0 0 0 0 0 0 0 0 0 0 0 0 127 0" result="hardAlpha"/>
<feOffset dy="1.68698"/>
<feGaussianBlur stdDeviation="0.843489"/>
<feComposite in2="hardAlpha" operator="out"/>
<feColorMatrix type="matrix" values="0 0 0 0 0 0 0 0 0 0 0 0 0 0 0 0 0 0 0.25 0"/>
<feBlend mode="normal" in2="BackgroundImageFix" result="effect1_dropShadow_3712_49247"/>
<feBlend mode="normal" in="SourceGraphic" in2="effect1_dropShadow_3712_49247" result="shape"/>
</filter>
</defs>
</svg>
