<svg width="300" height="313" viewBox="0 0 300 313" fill="none" xmlns="http://www.w3.org/2000/svg">
<mask id="mask0_3679_46476" style="mask-type:alpha" maskUnits="userSpaceOnUse" x="0" y="0" width="300" height="313">
<rect width="300" height="313" rx="8" fill="#D9D9D9"/>
</mask>
<g mask="url(#mask0_3679_46476)">
<mask id="mask1_3679_46476" style="mask-type:alpha" maskUnits="userSpaceOnUse" x="25" y="0" width="203" height="312">
<path opacity="0.8" d="M57.711 65.21C56.9737 65.21 56.3087 65.0817 55.716 64.825C55.128 64.5683 54.6427 64.202 54.26 63.726C53.882 63.2453 53.6417 62.676 53.539 62.018L55.289 61.752C55.4383 62.3493 55.744 62.8113 56.206 63.138C56.6727 63.4647 57.2093 63.628 57.816 63.628C58.1753 63.628 58.5137 63.572 58.831 63.46C59.1483 63.348 59.405 63.1847 59.601 62.97C59.8017 62.7553 59.902 62.4917 59.902 62.179C59.902 62.039 59.8787 61.9107 59.832 61.794C59.7853 61.6727 59.7153 61.5653 59.622 61.472C59.5333 61.3787 59.4167 61.2947 59.272 61.22C59.132 61.1407 58.9687 61.073 58.782 61.017L56.178 60.247C55.954 60.1817 55.7113 60.0953 55.45 59.988C55.1933 59.876 54.9483 59.7243 54.715 59.533C54.4863 59.337 54.2973 59.0897 54.148 58.791C54.0033 58.4877 53.931 58.1143 53.931 57.671C53.931 57.0223 54.0943 56.4787 54.421 56.04C54.7523 55.5967 55.1957 55.2653 55.751 55.046C56.311 54.8267 56.9317 54.7193 57.613 54.724C58.3037 54.7287 58.9197 54.8477 59.461 55.081C60.0023 55.3097 60.455 55.6433 60.819 56.082C61.183 56.5207 61.4397 57.0503 61.589 57.671L59.776 57.986C59.7013 57.6313 59.5567 57.3303 59.342 57.083C59.132 56.831 58.873 56.6397 58.565 56.509C58.2617 56.3783 57.9373 56.3083 57.592 56.299C57.256 56.2943 56.9433 56.3457 56.654 56.453C56.3693 56.5557 56.1383 56.705 55.961 56.901C55.7883 57.097 55.702 57.3257 55.702 57.587C55.702 57.8343 55.7767 58.0373 55.926 58.196C56.0753 58.35 56.2597 58.4737 56.479 58.567C56.703 58.6557 56.9293 58.7303 57.158 58.791L58.964 59.295C59.2113 59.3603 59.489 59.449 59.797 59.561C60.105 59.673 60.4013 59.8293 60.686 60.03C60.9707 60.2307 61.204 60.4943 61.386 60.821C61.5727 61.1477 61.666 61.563 61.666 62.067C61.666 62.5897 61.5563 63.0493 61.337 63.446C61.1223 63.838 60.8307 64.1647 60.462 64.426C60.0933 64.6873 59.671 64.8833 59.195 65.014C58.7237 65.1447 58.229 65.21 57.711 65.21ZM67.6122 65C67.1128 65.0933 66.6228 65.133 66.1422 65.119C65.6662 65.1097 65.2392 65.0233 64.8612 64.86C64.4832 64.692 64.1962 64.4283 64.0002 64.069C63.8275 63.7423 63.7365 63.4087 63.7272 63.068C63.7178 62.7273 63.7132 62.3423 63.7132 61.913V55.34H65.3932V61.815C65.3932 62.1183 65.3955 62.3843 65.4002 62.613C65.4095 62.8417 65.4585 63.0283 65.5472 63.173C65.7152 63.453 65.9835 63.6093 66.3522 63.642C66.7208 63.6747 67.1408 63.656 67.6122 63.586V65ZM62.3412 58.763V57.44H67.6122V58.763H62.3412ZM71.3518 65.21C70.8058 65.21 70.3438 65.1073 69.9658 64.902C69.5878 64.692 69.3008 64.4143 69.1048 64.069C68.9135 63.7237 68.8178 63.3433 68.8178 62.928C68.8178 62.564 68.8785 62.2373 68.9998 61.948C69.1211 61.654 69.3078 61.402 69.5598 61.192C69.8118 60.9773 70.1385 60.8023 70.5398 60.667C70.8431 60.569 71.1978 60.4803 71.6038 60.401C72.0145 60.3217 72.4578 60.2493 72.9338 60.184C73.4145 60.114 73.9161 60.0393 74.4388 59.96L73.8368 60.303C73.8415 59.7803 73.7248 59.3953 73.4868 59.148C73.2488 58.9007 72.8475 58.777 72.2828 58.777C71.9421 58.777 71.6131 58.8563 71.2958 59.015C70.9785 59.1737 70.7568 59.4467 70.6308 59.834L69.0908 59.351C69.2775 58.7117 69.6321 58.1983 70.1548 57.811C70.6821 57.4237 71.3915 57.23 72.2828 57.23C72.9548 57.23 73.5451 57.3397 74.0538 57.559C74.5671 57.7783 74.9475 58.1377 75.1948 58.637C75.3301 58.903 75.4118 59.176 75.4398 59.456C75.4678 59.7313 75.4818 60.0323 75.4818 60.359V65H74.0048V63.362L74.2498 63.628C73.9091 64.174 73.5101 64.5753 73.0528 64.832C72.6001 65.084 72.0331 65.21 71.3518 65.21ZM71.6878 63.866C72.0705 63.866 72.3971 63.7983 72.6678 63.663C72.9385 63.5277 73.1531 63.362 73.3118 63.166C73.4751 62.97 73.5848 62.7857 73.6408 62.613C73.7295 62.3983 73.7785 62.1533 73.7878 61.878C73.8018 61.598 73.8088 61.3717 73.8088 61.199L74.3268 61.353C73.8181 61.4323 73.3818 61.5023 73.0178 61.563C72.6538 61.6237 72.3411 61.682 72.0798 61.738C71.8185 61.7893 71.5875 61.8477 71.3868 61.913C71.1908 61.983 71.0251 62.0647 70.8898 62.158C70.7545 62.2513 70.6495 62.3587 70.5748 62.48C70.5048 62.6013 70.4698 62.7437 70.4698 62.907C70.4698 63.0937 70.5165 63.2593 70.6098 63.404C70.7031 63.544 70.8385 63.656 71.0158 63.74C71.1978 63.824 71.4218 63.866 71.6878 63.866ZM77.3042 65V57.44H78.7952V59.281L78.6132 59.043C78.7066 58.791 78.8302 58.5623 78.9842 58.357C79.1429 58.147 79.3319 57.9743 79.5512 57.839C79.7379 57.713 79.9432 57.615 80.1672 57.545C80.3959 57.4703 80.6292 57.426 80.8672 57.412C81.1052 57.3933 81.3362 57.4027 81.5602 57.44V59.015C81.3362 58.9497 81.0772 58.9287 80.7832 58.952C80.4939 58.9753 80.2326 59.057 79.9992 59.197C79.7659 59.323 79.5746 59.484 79.4252 59.68C79.2806 59.876 79.1732 60.1 79.1032 60.352C79.0332 60.5993 78.9982 60.8677 78.9982 61.157V65H77.3042ZM82.896 65V57.44H84.387V59.281L84.205 59.043C84.2983 58.791 84.422 58.5623 84.576 58.357C84.7347 58.147 84.9237 57.9743 85.143 57.839C85.3297 57.713 85.535 57.615 85.759 57.545C85.9877 57.4703 86.221 57.426 86.459 57.412C86.697 57.3933 86.928 57.4027 87.152 57.44V59.015C86.928 58.9497 86.669 58.9287 86.375 58.952C86.0857 58.9753 85.8243 59.057 85.591 59.197C85.3577 59.323 85.1663 59.484 85.017 59.68C84.8723 59.876 84.765 60.1 84.695 60.352C84.625 60.5993 84.59 60.8677 84.59 61.157V65H82.896ZM91.7881 65.21C91.0228 65.21 90.3508 65.0443 89.7721 64.713C89.1934 64.3817 88.7408 63.922 88.4141 63.334C88.0921 62.746 87.9311 62.0693 87.9311 61.304C87.9311 60.478 88.0898 59.7617 88.4071 59.155C88.7244 58.5437 89.1654 58.07 89.7301 57.734C90.2948 57.398 90.9481 57.23 91.6901 57.23C92.4741 57.23 93.1391 57.4143 93.6851 57.783C94.2358 58.147 94.6441 58.6627 94.9101 59.33C95.1761 59.9973 95.2764 60.7837 95.2111 61.689H93.5381V61.073C93.5334 60.2517 93.3888 59.652 93.1041 59.274C92.8194 58.896 92.3714 58.707 91.7601 58.707C91.0694 58.707 90.5561 58.9217 90.2201 59.351C89.8841 59.7757 89.7161 60.3987 89.7161 61.22C89.7161 61.9853 89.8841 62.578 90.2201 62.998C90.5561 63.418 91.0461 63.628 91.6901 63.628C92.1054 63.628 92.4624 63.537 92.7611 63.355C93.0644 63.1683 93.2978 62.9 93.4611 62.55L95.1271 63.054C94.8378 63.7353 94.3898 64.265 93.7831 64.643C93.1811 65.021 92.5161 65.21 91.7881 65.21ZM89.1841 61.689V60.415H94.3851V61.689H89.1841ZM99.804 65.21C99.1086 65.21 98.502 65.035 97.984 64.685C97.466 64.335 97.0646 63.859 96.78 63.257C96.4953 62.655 96.353 61.976 96.353 61.22C96.353 60.4547 96.4953 59.7733 96.78 59.176C97.0693 58.574 97.4776 58.1003 98.005 57.755C98.5323 57.405 99.153 57.23 99.867 57.23C100.586 57.23 101.188 57.405 101.673 57.755C102.163 58.1003 102.534 58.574 102.786 59.176C103.038 59.778 103.164 60.4593 103.164 61.22C103.164 61.9713 103.038 62.6503 102.786 63.257C102.534 63.859 102.158 64.335 101.659 64.685C101.16 65.035 100.541 65.21 99.804 65.21ZM100.063 63.698C100.516 63.698 100.88 63.5953 101.155 63.39C101.435 63.18 101.638 62.8883 101.764 62.515C101.895 62.1417 101.96 61.71 101.96 61.22C101.96 60.7253 101.895 60.2937 101.764 59.925C101.638 59.5517 101.44 59.2623 101.169 59.057C100.898 58.847 100.548 58.742 100.119 58.742C99.6663 58.742 99.293 58.854 98.999 59.078C98.705 59.2973 98.488 59.596 98.348 59.974C98.208 60.3473 98.138 60.7627 98.138 61.22C98.138 61.682 98.2056 62.102 98.341 62.48C98.481 62.8533 98.6933 63.1497 98.978 63.369C99.2626 63.5883 99.6243 63.698 100.063 63.698ZM101.96 65V59.694H101.75V54.92H103.451V65H101.96ZM107.936 64.986V63.516L112.248 59.673C112.584 59.3743 112.818 59.092 112.948 58.826C113.079 58.56 113.144 58.3033 113.144 58.056C113.144 57.72 113.072 57.4213 112.927 57.16C112.783 56.894 112.582 56.684 112.325 56.53C112.073 56.376 111.782 56.299 111.45 56.299C111.1 56.299 110.79 56.3807 110.519 56.544C110.253 56.7027 110.046 56.915 109.896 57.181C109.747 57.447 109.677 57.734 109.686 58.042H107.95C107.95 57.37 108.1 56.7843 108.398 56.285C108.702 55.7857 109.117 55.3983 109.644 55.123C110.176 54.8477 110.79 54.71 111.485 54.71C112.129 54.71 112.708 54.8547 113.221 55.144C113.735 55.4287 114.138 55.8253 114.432 56.334C114.726 56.838 114.873 57.419 114.873 58.077C114.873 58.5577 114.808 58.9613 114.677 59.288C114.547 59.6147 114.351 59.9157 114.089 60.191C113.833 60.4663 113.513 60.772 113.13 61.108L110.071 63.817L109.917 63.397H114.873V64.986H107.936ZM119.359 65V54.92H125.869V56.502H121.046V58.987H125.029V60.569H121.046V63.418H125.869V65H119.359ZM136.627 65V60.408C136.627 59.89 136.499 59.4863 136.242 59.197C135.986 58.903 135.638 58.756 135.199 58.756C134.929 58.756 134.686 58.819 134.471 58.945C134.257 59.0663 134.086 59.2483 133.96 59.491C133.834 59.729 133.771 60.0137 133.771 60.345L133.022 59.904C133.018 59.3813 133.134 58.9217 133.372 58.525C133.615 58.1237 133.942 57.811 134.352 57.587C134.763 57.363 135.22 57.251 135.724 57.251C136.56 57.251 137.199 57.503 137.642 58.007C138.09 58.5063 138.314 59.1643 138.314 59.981V65H136.627ZM127.534 65V57.44H129.025V59.785H129.235V65H127.534ZM132.091 65V60.429C132.091 59.9017 131.963 59.491 131.706 59.197C131.45 58.903 131.1 58.756 130.656 58.756C130.227 58.756 129.882 58.903 129.62 59.197C129.364 59.491 129.235 59.8737 129.235 60.345L128.479 59.841C128.479 59.351 128.601 58.91 128.843 58.518C129.086 58.126 129.413 57.818 129.823 57.594C130.239 57.3653 130.703 57.251 131.216 57.251C131.781 57.251 132.252 57.3723 132.63 57.615C133.013 57.853 133.298 58.1797 133.484 58.595C133.676 59.0057 133.771 59.47 133.771 59.988V65H132.091ZM142.254 65.21C141.708 65.21 141.246 65.1073 140.868 64.902C140.49 64.692 140.203 64.4143 140.007 64.069C139.816 63.7237 139.72 63.3433 139.72 62.928C139.72 62.564 139.781 62.2373 139.902 61.948C140.023 61.654 140.21 61.402 140.462 61.192C140.714 60.9773 141.041 60.8023 141.442 60.667C141.745 60.569 142.1 60.4803 142.506 60.401C142.917 60.3217 143.36 60.2493 143.836 60.184C144.317 60.114 144.818 60.0393 145.341 59.96L144.739 60.303C144.744 59.7803 144.627 59.3953 144.389 59.148C144.151 58.9007 143.75 58.777 143.185 58.777C142.844 58.777 142.515 58.8563 142.198 59.015C141.881 59.1737 141.659 59.4467 141.533 59.834L139.993 59.351C140.18 58.7117 140.534 58.1983 141.057 57.811C141.584 57.4237 142.294 57.23 143.185 57.23C143.857 57.23 144.447 57.3397 144.956 57.559C145.469 57.7783 145.85 58.1377 146.097 58.637C146.232 58.903 146.314 59.176 146.342 59.456C146.37 59.7313 146.384 60.0323 146.384 60.359V65H144.907V63.362L145.152 63.628C144.811 64.174 144.412 64.5753 143.955 64.832C143.502 65.084 142.935 65.21 142.254 65.21ZM142.59 63.866C142.973 63.866 143.299 63.7983 143.57 63.663C143.841 63.5277 144.055 63.362 144.214 63.166C144.377 62.97 144.487 62.7857 144.543 62.613C144.632 62.3983 144.681 62.1533 144.69 61.878C144.704 61.598 144.711 61.3717 144.711 61.199L145.229 61.353C144.72 61.4323 144.284 61.5023 143.92 61.563C143.556 61.6237 143.243 61.682 142.982 61.738C142.721 61.7893 142.49 61.8477 142.289 61.913C142.093 61.983 141.927 62.0647 141.792 62.158C141.657 62.2513 141.552 62.3587 141.477 62.48C141.407 62.6013 141.372 62.7437 141.372 62.907C141.372 63.0937 141.419 63.2593 141.512 63.404C141.605 63.544 141.741 63.656 141.918 63.74C142.1 63.824 142.324 63.866 142.59 63.866ZM148.347 56.292V54.745H150.034V56.292H148.347ZM148.347 65V57.44H150.034V65H148.347ZM152.27 65V54.71H153.957V65H152.27ZM158.973 65.21C158.04 65.21 157.282 65 156.698 64.58C156.115 64.16 155.76 63.5697 155.634 62.809L157.356 62.543C157.445 62.9163 157.641 63.2103 157.944 63.425C158.248 63.6397 158.63 63.747 159.092 63.747C159.498 63.747 159.811 63.6677 160.03 63.509C160.254 63.3457 160.366 63.124 160.366 62.844C160.366 62.6713 160.324 62.5337 160.24 62.431C160.161 62.3237 159.984 62.221 159.708 62.123C159.433 62.025 159.011 61.9013 158.441 61.752C157.807 61.584 157.303 61.4043 156.929 61.213C156.556 61.017 156.288 60.786 156.124 60.52C155.961 60.254 155.879 59.932 155.879 59.554C155.879 59.0827 156.003 58.672 156.25 58.322C156.498 57.972 156.843 57.7037 157.286 57.517C157.73 57.3257 158.252 57.23 158.854 57.23C159.442 57.23 159.963 57.321 160.415 57.503C160.873 57.685 161.241 57.944 161.521 58.28C161.801 58.616 161.974 59.0103 162.039 59.463L160.317 59.771C160.275 59.449 160.128 59.1947 159.876 59.008C159.629 58.8213 159.298 58.7163 158.882 58.693C158.486 58.6697 158.166 58.7303 157.923 58.875C157.681 59.015 157.559 59.2133 157.559 59.47C157.559 59.6147 157.608 59.7383 157.706 59.841C157.804 59.9437 158 60.0463 158.294 60.149C158.593 60.2517 159.036 60.3777 159.624 60.527C160.226 60.681 160.707 60.8583 161.066 61.059C161.43 61.255 161.692 61.4907 161.85 61.766C162.014 62.0413 162.095 62.375 162.095 62.767C162.095 63.5277 161.818 64.125 161.262 64.559C160.712 64.993 159.949 65.21 158.973 65.21Z" fill="white"/>
<path d="M30.825 69L32.45 61.975L27 57.25L34.2 56.625L37 50L39.8 56.625L47 57.25L41.55 61.975L43.175 69L37 65.275L30.825 69Z" fill="white"/>
<path opacity="0.8" d="M53.98 113V102.92H55.499L58.985 110.06L62.471 102.92H63.99V113H62.415V106.539L59.321 113H58.649L55.562 106.539V113H53.98ZM69.2956 113.21C68.5396 113.21 67.8792 113.04 67.3146 112.699C66.7499 112.358 66.3112 111.889 65.9986 111.292C65.6906 110.69 65.5366 109.999 65.5366 109.22C65.5366 108.427 65.6952 107.731 66.0126 107.134C66.3299 106.537 66.7709 106.07 67.3356 105.734C67.9002 105.398 68.5536 105.23 69.2956 105.23C70.0562 105.23 70.7189 105.4 71.2836 105.741C71.8482 106.082 72.2869 106.553 72.5996 107.155C72.9122 107.752 73.0686 108.441 73.0686 109.22C73.0686 110.004 72.9099 110.697 72.5926 111.299C72.2799 111.896 71.8412 112.365 71.2766 112.706C70.7119 113.042 70.0516 113.21 69.2956 113.21ZM69.2956 111.628C69.9676 111.628 70.4669 111.404 70.7936 110.956C71.1202 110.508 71.2836 109.929 71.2836 109.22C71.2836 108.487 71.1179 107.904 70.7866 107.47C70.4552 107.031 69.9582 106.812 69.2956 106.812C68.8429 106.812 68.4696 106.915 68.1756 107.12C67.8862 107.321 67.6716 107.603 67.5316 107.967C67.3916 108.326 67.3216 108.744 67.3216 109.22C67.3216 109.953 67.4872 110.538 67.8186 110.977C68.1546 111.411 68.6469 111.628 69.2956 111.628ZM76.3814 113L73.6374 105.44H75.3244L77.2284 110.921L79.1254 105.44H80.8194L78.0754 113H76.3814ZM85.2393 113.21C84.4739 113.21 83.8019 113.044 83.2233 112.713C82.6446 112.382 82.1919 111.922 81.8653 111.334C81.5433 110.746 81.3823 110.069 81.3823 109.304C81.3823 108.478 81.5409 107.762 81.8583 107.155C82.1756 106.544 82.6166 106.07 83.1813 105.734C83.7459 105.398 84.3993 105.23 85.1413 105.23C85.9253 105.23 86.5903 105.414 87.1363 105.783C87.6869 106.147 88.0953 106.663 88.3613 107.33C88.6273 107.997 88.7276 108.784 88.6623 109.689H86.9893V109.073C86.9846 108.252 86.8399 107.652 86.5553 107.274C86.2706 106.896 85.8226 106.707 85.2113 106.707C84.5206 106.707 84.0073 106.922 83.6713 107.351C83.3353 107.776 83.1673 108.399 83.1673 109.22C83.1673 109.985 83.3353 110.578 83.6713 110.998C84.0073 111.418 84.4973 111.628 85.1413 111.628C85.5566 111.628 85.9136 111.537 86.2123 111.355C86.5156 111.168 86.7489 110.9 86.9123 110.55L88.5783 111.054C88.2889 111.735 87.8409 112.265 87.2343 112.643C86.6323 113.021 85.9673 113.21 85.2393 113.21ZM82.6353 109.689V108.415H87.8363V109.689H82.6353ZM93.2551 113.21C92.5598 113.21 91.9531 113.035 91.4351 112.685C90.9171 112.335 90.5158 111.859 90.2311 111.257C89.9465 110.655 89.8041 109.976 89.8041 109.22C89.8041 108.455 89.9465 107.773 90.2311 107.176C90.5205 106.574 90.9288 106.1 91.4561 105.755C91.9835 105.405 92.6041 105.23 93.3181 105.23C94.0368 105.23 94.6388 105.405 95.1241 105.755C95.6141 106.1 95.9851 106.574 96.2371 107.176C96.4891 107.778 96.6151 108.459 96.6151 109.22C96.6151 109.971 96.4891 110.65 96.2371 111.257C95.9851 111.859 95.6095 112.335 95.1101 112.685C94.6108 113.035 93.9925 113.21 93.2551 113.21ZM93.5141 111.698C93.9668 111.698 94.3308 111.595 94.6061 111.39C94.8861 111.18 95.0891 110.888 95.2151 110.515C95.3458 110.142 95.4111 109.71 95.4111 109.22C95.4111 108.725 95.3458 108.294 95.2151 107.925C95.0891 107.552 94.8908 107.262 94.6201 107.057C94.3495 106.847 93.9995 106.742 93.5701 106.742C93.1175 106.742 92.7441 106.854 92.4501 107.078C92.1561 107.297 91.9391 107.596 91.7991 107.974C91.6591 108.347 91.5891 108.763 91.5891 109.22C91.5891 109.682 91.6568 110.102 91.7921 110.48C91.9321 110.853 92.1445 111.15 92.4291 111.369C92.7138 111.588 93.0755 111.698 93.5141 111.698ZM95.4111 113V107.694H95.2011V102.92H96.9021V113H95.4111ZM103.418 113V104.761L101.528 105.916V104.054L103.418 102.92H105.14V113H103.418ZM109.556 113V104.761L107.666 105.916V104.054L109.556 102.92H111.278V113H109.556ZM116.748 113V102.92H123.258V104.502H118.435V106.987H122.418V108.569H118.435V111.418H123.258V113H116.748ZM134.016 113V108.408C134.016 107.89 133.888 107.486 133.631 107.197C133.374 106.903 133.027 106.756 132.588 106.756C132.317 106.756 132.075 106.819 131.86 106.945C131.645 107.066 131.475 107.248 131.349 107.491C131.223 107.729 131.16 108.014 131.16 108.345L130.411 107.904C130.406 107.381 130.523 106.922 130.761 106.525C131.004 106.124 131.33 105.811 131.741 105.587C132.152 105.363 132.609 105.251 133.113 105.251C133.948 105.251 134.588 105.503 135.031 106.007C135.479 106.506 135.703 107.164 135.703 107.981V113H134.016ZM124.923 113V105.44H126.414V107.785H126.624V113H124.923ZM129.48 113V108.429C129.48 107.902 129.352 107.491 129.095 107.197C128.838 106.903 128.488 106.756 128.045 106.756C127.616 106.756 127.27 106.903 127.009 107.197C126.752 107.491 126.624 107.874 126.624 108.345L125.868 107.841C125.868 107.351 125.989 106.91 126.232 106.518C126.475 106.126 126.801 105.818 127.212 105.594C127.627 105.365 128.092 105.251 128.605 105.251C129.17 105.251 129.641 105.372 130.019 105.615C130.402 105.853 130.686 106.18 130.873 106.595C131.064 107.006 131.16 107.47 131.16 107.988V113H129.48ZM139.643 113.21C139.097 113.21 138.635 113.107 138.257 112.902C137.879 112.692 137.592 112.414 137.396 112.069C137.204 111.724 137.109 111.343 137.109 110.928C137.109 110.564 137.169 110.237 137.291 109.948C137.412 109.654 137.599 109.402 137.851 109.192C138.103 108.977 138.429 108.802 138.831 108.667C139.134 108.569 139.489 108.48 139.895 108.401C140.305 108.322 140.749 108.249 141.225 108.184C141.705 108.114 142.207 108.039 142.73 107.96L142.128 108.303C142.132 107.78 142.016 107.395 141.778 107.148C141.54 106.901 141.138 106.777 140.574 106.777C140.233 106.777 139.904 106.856 139.587 107.015C139.269 107.174 139.048 107.447 138.922 107.834L137.382 107.351C137.568 106.712 137.923 106.198 138.446 105.811C138.973 105.424 139.682 105.23 140.574 105.23C141.246 105.23 141.836 105.34 142.345 105.559C142.858 105.778 143.238 106.138 143.486 106.637C143.621 106.903 143.703 107.176 143.731 107.456C143.759 107.731 143.773 108.032 143.773 108.359V113H142.296V111.362L142.541 111.628C142.2 112.174 141.801 112.575 141.344 112.832C140.891 113.084 140.324 113.21 139.643 113.21ZM139.979 111.866C140.361 111.866 140.688 111.798 140.959 111.663C141.229 111.528 141.444 111.362 141.603 111.166C141.766 110.97 141.876 110.786 141.932 110.613C142.02 110.398 142.069 110.153 142.079 109.878C142.093 109.598 142.1 109.372 142.1 109.199L142.618 109.353C142.109 109.432 141.673 109.502 141.309 109.563C140.945 109.624 140.632 109.682 140.371 109.738C140.109 109.789 139.878 109.848 139.678 109.913C139.482 109.983 139.316 110.065 139.181 110.158C139.045 110.251 138.94 110.359 138.866 110.48C138.796 110.601 138.761 110.744 138.761 110.907C138.761 111.094 138.807 111.259 138.901 111.404C138.994 111.544 139.129 111.656 139.307 111.74C139.489 111.824 139.713 111.866 139.979 111.866ZM145.735 104.292V102.745H147.422V104.292H145.735ZM145.735 113V105.44H147.422V113H145.735ZM149.659 113V102.71H151.346V113H149.659ZM156.362 113.21C155.429 113.21 154.67 113 154.087 112.58C153.504 112.16 153.149 111.57 153.023 110.809L154.745 110.543C154.834 110.916 155.03 111.21 155.333 111.425C155.636 111.64 156.019 111.747 156.481 111.747C156.887 111.747 157.2 111.668 157.419 111.509C157.643 111.346 157.755 111.124 157.755 110.844C157.755 110.671 157.713 110.534 157.629 110.431C157.55 110.324 157.372 110.221 157.097 110.123C156.822 110.025 156.399 109.901 155.83 109.752C155.195 109.584 154.691 109.404 154.318 109.213C153.945 109.017 153.676 108.786 153.513 108.52C153.35 108.254 153.268 107.932 153.268 107.554C153.268 107.083 153.392 106.672 153.639 106.322C153.886 105.972 154.232 105.704 154.675 105.517C155.118 105.326 155.641 105.23 156.243 105.23C156.831 105.23 157.351 105.321 157.804 105.503C158.261 105.685 158.63 105.944 158.91 106.28C159.19 106.616 159.363 107.01 159.428 107.463L157.706 107.771C157.664 107.449 157.517 107.195 157.265 107.008C157.018 106.821 156.686 106.716 156.271 106.693C155.874 106.67 155.555 106.73 155.312 106.875C155.069 107.015 154.948 107.213 154.948 107.47C154.948 107.615 154.997 107.738 155.095 107.841C155.193 107.944 155.389 108.046 155.683 108.149C155.982 108.252 156.425 108.378 157.013 108.527C157.615 108.681 158.096 108.858 158.455 109.059C158.819 109.255 159.08 109.491 159.239 109.766C159.402 110.041 159.484 110.375 159.484 110.767C159.484 111.528 159.206 112.125 158.651 112.559C158.1 112.993 157.337 113.21 156.362 113.21Z" fill="white"/>
<path d="M36.4693 98.4693C36.61 98.3289 36.8006 98.25 36.9993 98.25C37.1981 98.25 37.3887 98.3289 37.5293 98.4693L40.2293 101.169C40.3698 101.31 40.4487 101.501 40.4487 101.699C40.4487 101.898 40.3698 102.089 40.2293 102.229H37.7493V107.249H42.7693V104.769C42.91 104.629 43.1006 104.55 43.2993 104.55C43.4981 104.55 43.6887 104.629 43.8293 104.769L46.5293 107.469C46.6698 107.61 46.7487 107.801 46.7487 107.999C46.7487 108.198 46.6698 108.389 46.5293 108.529L43.8293 111.229C43.6887 111.37 43.4981 111.449 43.2993 111.449C43.1006 111.449 42.91 111.37 42.7693 111.229V108.749H37.7493V113.769H40.2293C40.3698 113.91 40.4487 114.101 40.4487 114.299C40.4487 114.498 40.3698 114.689 40.2293 114.829L37.5293 117.529C37.3887 117.67 37.1981 117.749 36.9993 117.749C36.8006 117.749 36.61 117.67 36.4693 117.529L33.7693 114.829C33.6289 114.689 33.55 114.498 33.55 114.299C33.55 114.101 33.6289 113.91 33.7693 113.769H36.2493V108.749H31.2293V111.229C31.0887 111.37 30.8981 111.449 30.6993 111.449C30.5006 111.449 30.31 111.37 30.1693 111.229L27.4693 108.529C27.3289 108.389 27.25 108.198 27.25 107.999C27.25 107.801 27.3289 107.61 27.4693 107.469L30.1693 104.769C30.31 104.629 30.5006 104.55 30.6993 104.55C30.8981 104.55 31.0887 104.629 31.2293 104.769V107.249H36.2493V102.229H33.7693C33.6289 102.089 33.55 101.898 33.55 101.699C33.55 101.501 33.6289 101.31 33.7693 101.169L36.4693 98.4693Z" fill="white"/>
<path opacity="0.8" d="M53.98 161V150.92H58.145C58.243 150.92 58.369 150.925 58.523 150.934C58.677 150.939 58.8193 150.953 58.95 150.976C59.5333 151.065 60.014 151.258 60.392 151.557C60.7747 151.856 61.057 152.234 61.239 152.691C61.4257 153.144 61.519 153.648 61.519 154.203C61.519 155.024 61.3113 155.731 60.896 156.324C60.4807 156.912 59.8437 157.276 58.985 157.416L58.264 157.479H55.667V161H53.98ZM59.769 161L57.781 156.898L59.496 156.52L61.68 161H59.769ZM55.667 155.904H58.075C58.1683 155.904 58.2733 155.899 58.39 155.89C58.5067 155.881 58.614 155.862 58.712 155.834C58.992 155.764 59.2113 155.64 59.37 155.463C59.5333 155.286 59.6477 155.085 59.713 154.861C59.783 154.637 59.818 154.418 59.818 154.203C59.818 153.988 59.783 153.769 59.713 153.545C59.6477 153.316 59.5333 153.113 59.37 152.936C59.2113 152.759 58.992 152.635 58.712 152.565C58.614 152.537 58.5067 152.521 58.39 152.516C58.2733 152.507 58.1683 152.502 58.075 152.502H55.667V155.904ZM66.6592 161.21C65.8939 161.21 65.2219 161.044 64.6432 160.713C64.0645 160.382 63.6119 159.922 63.2852 159.334C62.9632 158.746 62.8022 158.069 62.8022 157.304C62.8022 156.478 62.9609 155.762 63.2782 155.155C63.5955 154.544 64.0365 154.07 64.6012 153.734C65.1659 153.398 65.8192 153.23 66.5612 153.23C67.3452 153.23 68.0102 153.414 68.5562 153.783C69.1069 154.147 69.5152 154.663 69.7812 155.33C70.0472 155.997 70.1475 156.784 70.0822 157.689H68.4092V157.073C68.4045 156.252 68.2599 155.652 67.9752 155.274C67.6905 154.896 67.2425 154.707 66.6312 154.707C65.9405 154.707 65.4272 154.922 65.0912 155.351C64.7552 155.776 64.5872 156.399 64.5872 157.22C64.5872 157.985 64.7552 158.578 65.0912 158.998C65.4272 159.418 65.9172 159.628 66.5612 159.628C66.9765 159.628 67.3335 159.537 67.6322 159.355C67.9355 159.168 68.1689 158.9 68.3322 158.55L69.9982 159.054C69.7089 159.735 69.2609 160.265 68.6542 160.643C68.0522 161.021 67.3872 161.21 66.6592 161.21ZM64.0552 157.689V156.415H69.2562V157.689H64.0552ZM74.9271 161.21C74.1477 161.21 73.4827 161.037 72.9321 160.692C72.3814 160.342 71.9591 159.866 71.6651 159.264C71.3757 158.662 71.2287 157.981 71.2241 157.22C71.2287 156.445 71.3804 155.759 71.6791 155.162C71.9824 154.56 72.4117 154.089 72.9671 153.748C73.5224 153.403 74.1827 153.23 74.9481 153.23C75.8067 153.23 76.5324 153.447 77.1251 153.881C77.7224 154.31 78.1121 154.898 78.2941 155.645L76.6141 156.1C76.4834 155.694 76.2664 155.379 75.9631 155.155C75.6597 154.926 75.3144 154.812 74.9271 154.812C74.4884 154.812 74.1267 154.917 73.8421 155.127C73.5574 155.332 73.3474 155.617 73.2121 155.981C73.0767 156.345 73.0091 156.758 73.0091 157.22C73.0091 157.939 73.1701 158.52 73.4921 158.963C73.8141 159.406 74.2924 159.628 74.9271 159.628C75.3751 159.628 75.7274 159.525 75.9841 159.32C76.2454 159.115 76.4414 158.818 76.5721 158.431L78.2941 158.816C78.0607 159.586 77.6524 160.179 77.0691 160.594C76.4857 161.005 75.7717 161.21 74.9271 161.21ZM82.9287 161.21C82.1634 161.21 81.4914 161.044 80.9127 160.713C80.3341 160.382 79.8814 159.922 79.5547 159.334C79.2327 158.746 79.0717 158.069 79.0717 157.304C79.0717 156.478 79.2304 155.762 79.5477 155.155C79.8651 154.544 80.3061 154.07 80.8707 153.734C81.4354 153.398 82.0887 153.23 82.8307 153.23C83.6147 153.23 84.2797 153.414 84.8257 153.783C85.3764 154.147 85.7847 154.663 86.0507 155.33C86.3167 155.997 86.4171 156.784 86.3517 157.689H84.6787V157.073C84.6741 156.252 84.5294 155.652 84.2447 155.274C83.9601 154.896 83.5121 154.707 82.9007 154.707C82.2101 154.707 81.6967 154.922 81.3607 155.351C81.0247 155.776 80.8567 156.399 80.8567 157.22C80.8567 157.985 81.0247 158.578 81.3607 158.998C81.6967 159.418 82.1867 159.628 82.8307 159.628C83.2461 159.628 83.6031 159.537 83.9017 159.355C84.2051 159.168 84.4384 158.9 84.6017 158.55L86.2677 159.054C85.9784 159.735 85.5304 160.265 84.9237 160.643C84.3217 161.021 83.6567 161.21 82.9287 161.21ZM80.3247 157.689V156.415H85.5257V157.689H80.3247ZM88.0536 152.292V150.745H89.7406V152.292H88.0536ZM88.0536 161V153.44H89.7406V161H88.0536ZM93.8814 161L91.1374 153.44H92.8244L94.7284 158.921L96.6254 153.44H98.3194L95.5754 161H93.8814ZM102.739 161.21C101.974 161.21 101.302 161.044 100.723 160.713C100.145 160.382 99.6919 159.922 99.3653 159.334C99.0433 158.746 98.8823 158.069 98.8823 157.304C98.8823 156.478 99.0409 155.762 99.3583 155.155C99.6756 154.544 100.117 154.07 100.681 153.734C101.246 153.398 101.899 153.23 102.641 153.23C103.425 153.23 104.09 153.414 104.636 153.783C105.187 154.147 105.595 154.663 105.861 155.33C106.127 155.997 106.228 156.784 106.162 157.689H104.489V157.073C104.485 156.252 104.34 155.652 104.055 155.274C103.771 154.896 103.323 154.707 102.711 154.707C102.021 154.707 101.507 154.922 101.171 155.351C100.835 155.776 100.667 156.399 100.667 157.22C100.667 157.985 100.835 158.578 101.171 158.998C101.507 159.418 101.997 159.628 102.641 159.628C103.057 159.628 103.414 159.537 103.712 159.355C104.016 159.168 104.249 158.9 104.412 158.55L106.078 159.054C105.789 159.735 105.341 160.265 104.734 160.643C104.132 161.021 103.467 161.21 102.739 161.21ZM100.135 157.689V156.415H105.336V157.689H100.135ZM110.755 161.21C110.06 161.21 109.453 161.035 108.935 160.685C108.417 160.335 108.016 159.859 107.731 159.257C107.446 158.655 107.304 157.976 107.304 157.22C107.304 156.455 107.446 155.773 107.731 155.176C108.02 154.574 108.429 154.1 108.956 153.755C109.483 153.405 110.104 153.23 110.818 153.23C111.537 153.23 112.139 153.405 112.624 153.755C113.114 154.1 113.485 154.574 113.737 155.176C113.989 155.778 114.115 156.459 114.115 157.22C114.115 157.971 113.989 158.65 113.737 159.257C113.485 159.859 113.109 160.335 112.61 160.685C112.111 161.035 111.492 161.21 110.755 161.21ZM111.014 159.698C111.467 159.698 111.831 159.595 112.106 159.39C112.386 159.18 112.589 158.888 112.715 158.515C112.846 158.142 112.911 157.71 112.911 157.22C112.911 156.725 112.846 156.294 112.715 155.925C112.589 155.552 112.391 155.262 112.12 155.057C111.849 154.847 111.499 154.742 111.07 154.742C110.617 154.742 110.244 154.854 109.95 155.078C109.656 155.297 109.439 155.596 109.299 155.974C109.159 156.347 109.089 156.763 109.089 157.22C109.089 157.682 109.157 158.102 109.292 158.48C109.432 158.853 109.644 159.15 109.929 159.369C110.214 159.588 110.575 159.698 111.014 159.698ZM112.911 161V155.694H112.701V150.92H114.402V161H112.911ZM121.282 161.21C120.736 161.21 120.274 161.107 119.896 160.902C119.518 160.692 119.231 160.414 119.035 160.069C118.843 159.724 118.748 159.343 118.748 158.928C118.748 158.564 118.808 158.237 118.93 157.948C119.051 157.654 119.238 157.402 119.49 157.192C119.742 156.977 120.068 156.802 120.47 156.667C120.773 156.569 121.128 156.48 121.534 156.401C121.944 156.322 122.388 156.249 122.864 156.184C123.344 156.114 123.846 156.039 124.369 155.96L123.767 156.303C123.771 155.78 123.655 155.395 123.417 155.148C123.179 154.901 122.777 154.777 122.213 154.777C121.872 154.777 121.543 154.856 121.226 155.015C120.908 155.174 120.687 155.447 120.561 155.834L119.021 155.351C119.207 154.712 119.562 154.198 120.085 153.811C120.612 153.424 121.321 153.23 122.213 153.23C122.885 153.23 123.475 153.34 123.984 153.559C124.497 153.778 124.877 154.138 125.125 154.637C125.26 154.903 125.342 155.176 125.37 155.456C125.398 155.731 125.412 156.032 125.412 156.359V161H123.935V159.362L124.18 159.628C123.839 160.174 123.44 160.575 122.983 160.832C122.53 161.084 121.963 161.21 121.282 161.21ZM121.618 159.866C122 159.866 122.327 159.798 122.598 159.663C122.868 159.528 123.083 159.362 123.242 159.166C123.405 158.97 123.515 158.786 123.571 158.613C123.659 158.398 123.708 158.153 123.718 157.878C123.732 157.598 123.739 157.372 123.739 157.199L124.257 157.353C123.748 157.432 123.312 157.502 122.948 157.563C122.584 157.624 122.271 157.682 122.01 157.738C121.748 157.789 121.517 157.848 121.317 157.913C121.121 157.983 120.955 158.065 120.82 158.158C120.684 158.251 120.579 158.359 120.505 158.48C120.435 158.601 120.4 158.744 120.4 158.907C120.4 159.094 120.446 159.259 120.54 159.404C120.633 159.544 120.768 159.656 120.946 159.74C121.128 159.824 121.352 159.866 121.618 159.866ZM135.266 161V157.36C135.266 157.122 135.249 156.858 135.217 156.569C135.184 156.28 135.107 156.002 134.986 155.736C134.869 155.465 134.692 155.244 134.454 155.071C134.22 154.898 133.903 154.812 133.502 154.812C133.287 154.812 133.075 154.847 132.865 154.917C132.655 154.987 132.463 155.108 132.291 155.281C132.123 155.449 131.987 155.682 131.885 155.981C131.782 156.275 131.731 156.653 131.731 157.115L130.73 156.688C130.73 156.044 130.853 155.461 131.101 154.938C131.353 154.415 131.721 154 132.207 153.692C132.692 153.379 133.289 153.223 133.999 153.223C134.559 153.223 135.021 153.316 135.385 153.503C135.749 153.69 136.038 153.928 136.253 154.217C136.467 154.506 136.626 154.814 136.729 155.141C136.831 155.468 136.897 155.778 136.925 156.072C136.957 156.361 136.974 156.597 136.974 156.779V161H135.266ZM130.023 161V153.44H131.528V155.785H131.731V161H130.023ZM142.114 161.21C141.349 161.21 140.677 161.044 140.098 160.713C139.52 160.382 139.067 159.922 138.74 159.334C138.418 158.746 138.257 158.069 138.257 157.304C138.257 156.478 138.416 155.762 138.733 155.155C139.051 154.544 139.492 154.07 140.056 153.734C140.621 153.398 141.274 153.23 142.016 153.23C142.8 153.23 143.465 153.414 144.011 153.783C144.562 154.147 144.97 154.663 145.236 155.33C145.502 155.997 145.603 156.784 145.537 157.689H143.864V157.073C143.86 156.252 143.715 155.652 143.43 155.274C143.146 154.896 142.698 154.707 142.086 154.707C141.396 154.707 140.882 154.922 140.546 155.351C140.21 155.776 140.042 156.399 140.042 157.22C140.042 157.985 140.21 158.578 140.546 158.998C140.882 159.418 141.372 159.628 142.016 159.628C142.432 159.628 142.789 159.537 143.087 159.355C143.391 159.168 143.624 158.9 143.787 158.55L145.453 159.054C145.164 159.735 144.716 160.265 144.109 160.643C143.507 161.021 142.842 161.21 142.114 161.21ZM139.51 157.689V156.415H144.711V157.689H139.51ZM148.436 161L146.126 153.426L147.778 153.44L149.255 158.291L150.753 153.44H152.174L153.665 158.291L155.149 153.44H156.801L154.491 161H153.175L151.46 155.799L149.752 161H148.436ZM160.867 161V150.92H167.377V152.502H162.554V154.987H166.537V156.569H162.554V159.418H167.377V161H160.867ZM178.135 161V156.408C178.135 155.89 178.007 155.486 177.75 155.197C177.494 154.903 177.146 154.756 176.707 154.756C176.437 154.756 176.194 154.819 175.979 154.945C175.765 155.066 175.594 155.248 175.468 155.491C175.342 155.729 175.279 156.014 175.279 156.345L174.53 155.904C174.526 155.381 174.642 154.922 174.88 154.525C175.123 154.124 175.45 153.811 175.86 153.587C176.271 153.363 176.728 153.251 177.232 153.251C178.068 153.251 178.707 153.503 179.15 154.007C179.598 154.506 179.822 155.164 179.822 155.981V161H178.135ZM169.042 161V153.44H170.533V155.785H170.743V161H169.042ZM173.599 161V156.429C173.599 155.902 173.471 155.491 173.214 155.197C172.958 154.903 172.608 154.756 172.164 154.756C171.735 154.756 171.39 154.903 171.128 155.197C170.872 155.491 170.743 155.874 170.743 156.345L169.987 155.841C169.987 155.351 170.109 154.91 170.351 154.518C170.594 154.126 170.921 153.818 171.331 153.594C171.747 153.365 172.211 153.251 172.724 153.251C173.289 153.251 173.76 153.372 174.138 153.615C174.521 153.853 174.806 154.18 174.992 154.595C175.184 155.006 175.279 155.47 175.279 155.988V161H173.599ZM183.762 161.21C183.216 161.21 182.754 161.107 182.376 160.902C181.998 160.692 181.711 160.414 181.515 160.069C181.324 159.724 181.228 159.343 181.228 158.928C181.228 158.564 181.289 158.237 181.41 157.948C181.531 157.654 181.718 157.402 181.97 157.192C182.222 156.977 182.549 156.802 182.95 156.667C183.253 156.569 183.608 156.48 184.014 156.401C184.425 156.322 184.868 156.249 185.344 156.184C185.825 156.114 186.326 156.039 186.849 155.96L186.247 156.303C186.252 155.78 186.135 155.395 185.897 155.148C185.659 154.901 185.258 154.777 184.693 154.777C184.352 154.777 184.023 154.856 183.706 155.015C183.389 155.174 183.167 155.447 183.041 155.834L181.501 155.351C181.688 154.712 182.042 154.198 182.565 153.811C183.092 153.424 183.802 153.23 184.693 153.23C185.365 153.23 185.955 153.34 186.464 153.559C186.977 153.778 187.358 154.138 187.605 154.637C187.74 154.903 187.822 155.176 187.85 155.456C187.878 155.731 187.892 156.032 187.892 156.359V161H186.415V159.362L186.66 159.628C186.319 160.174 185.92 160.575 185.463 160.832C185.01 161.084 184.443 161.21 183.762 161.21ZM184.098 159.866C184.481 159.866 184.807 159.798 185.078 159.663C185.349 159.528 185.563 159.362 185.722 159.166C185.885 158.97 185.995 158.786 186.051 158.613C186.14 158.398 186.189 158.153 186.198 157.878C186.212 157.598 186.219 157.372 186.219 157.199L186.737 157.353C186.228 157.432 185.792 157.502 185.428 157.563C185.064 157.624 184.751 157.682 184.49 157.738C184.229 157.789 183.998 157.848 183.797 157.913C183.601 157.983 183.435 158.065 183.3 158.158C183.165 158.251 183.06 158.359 182.985 158.48C182.915 158.601 182.88 158.744 182.88 158.907C182.88 159.094 182.927 159.259 183.02 159.404C183.113 159.544 183.249 159.656 183.426 159.74C183.608 159.824 183.832 159.866 184.098 159.866ZM189.854 152.292V150.745H191.541V152.292H189.854ZM189.854 161V153.44H191.541V161H189.854ZM193.778 161V150.71H195.465V161H193.778Z" fill="white"/>
<path d="M29.5456 148.005C29.4973 147.871 29.4881 147.726 29.5192 147.587C29.5502 147.448 29.6201 147.32 29.7208 147.22C29.8215 147.119 29.9488 147.049 30.0878 147.018C30.2268 146.987 30.3717 146.996 30.5056 147.045L47.0056 153.045C47.1484 153.096 47.2721 153.19 47.3604 153.314C47.4486 153.437 47.4973 153.585 47.4999 153.737C47.5025 153.889 47.4589 154.038 47.375 154.164C47.291 154.291 47.1706 154.389 47.0296 154.446L40.3801 157.105L36.0301 152.47L34.9696 153.531L39.4396 158.295L36.9466 164.529C36.8902 164.669 36.7922 164.79 36.6657 164.874C36.5393 164.958 36.3903 165.002 36.2384 164.999C36.0865 164.997 35.939 164.949 35.8153 164.86C35.6916 164.772 35.5976 164.649 35.5456 164.506L29.5456 148.005Z" fill="white"/>
<path d="M29.5456 148.005C29.4973 147.871 29.4881 147.726 29.5192 147.587C29.5502 147.448 29.6201 147.32 29.7208 147.22C29.8215 147.119 29.9488 147.049 30.0878 147.018C30.2268 146.987 30.3717 146.996 30.5056 147.045L47.0056 153.045C47.1484 153.096 47.2721 153.19 47.3604 153.314C47.4486 153.437 47.4973 153.585 47.4999 153.737C47.5025 153.889 47.4589 154.038 47.375 154.164C47.291 154.291 47.1706 154.389 47.0296 154.446L40.3801 157.105L36.0301 152.47L34.9696 153.531L39.4396 158.295L36.9466 164.529C36.8902 164.669 36.7922 164.79 36.6657 164.874C36.5393 164.958 36.3903 165.002 36.2384 164.999C36.0865 164.997 35.939 164.949 35.8153 164.86C35.6916 164.772 35.5976 164.649 35.5456 164.506L29.5456 148.005Z" fill="white"/>
<path opacity="0.8" d="M53.98 209V198.92H58.145C58.243 198.92 58.369 198.925 58.523 198.934C58.677 198.939 58.8193 198.953 58.95 198.976C59.5333 199.065 60.014 199.258 60.392 199.557C60.7747 199.856 61.057 200.234 61.239 200.691C61.4257 201.144 61.519 201.648 61.519 202.203C61.519 203.024 61.3113 203.731 60.896 204.324C60.4807 204.912 59.8437 205.276 58.985 205.416L58.264 205.479H55.667V209H53.98ZM59.769 209L57.781 204.898L59.496 204.52L61.68 209H59.769ZM55.667 203.904H58.075C58.1683 203.904 58.2733 203.899 58.39 203.89C58.5067 203.881 58.614 203.862 58.712 203.834C58.992 203.764 59.2113 203.64 59.37 203.463C59.5333 203.286 59.6477 203.085 59.713 202.861C59.783 202.637 59.818 202.418 59.818 202.203C59.818 201.988 59.783 201.769 59.713 201.545C59.6477 201.316 59.5333 201.113 59.37 200.936C59.2113 200.759 58.992 200.635 58.712 200.565C58.614 200.537 58.5067 200.521 58.39 200.516C58.2733 200.507 58.1683 200.502 58.075 200.502H55.667V203.904ZM66.6592 209.21C65.8939 209.21 65.2219 209.044 64.6432 208.713C64.0645 208.382 63.6119 207.922 63.2852 207.334C62.9632 206.746 62.8022 206.069 62.8022 205.304C62.8022 204.478 62.9609 203.762 63.2782 203.155C63.5955 202.544 64.0365 202.07 64.6012 201.734C65.1659 201.398 65.8192 201.23 66.5612 201.23C67.3452 201.23 68.0102 201.414 68.5562 201.783C69.1069 202.147 69.5152 202.663 69.7812 203.33C70.0472 203.997 70.1475 204.784 70.0822 205.689H68.4092V205.073C68.4045 204.252 68.2599 203.652 67.9752 203.274C67.6905 202.896 67.2425 202.707 66.6312 202.707C65.9405 202.707 65.4272 202.922 65.0912 203.351C64.7552 203.776 64.5872 204.399 64.5872 205.22C64.5872 205.985 64.7552 206.578 65.0912 206.998C65.4272 207.418 65.9172 207.628 66.5612 207.628C66.9765 207.628 67.3335 207.537 67.6322 207.355C67.9355 207.168 68.1689 206.9 68.3322 206.55L69.9982 207.054C69.7089 207.735 69.2609 208.265 68.6542 208.643C68.0522 209.021 67.3872 209.21 66.6592 209.21ZM64.0552 205.689V204.415H69.2562V205.689H64.0552ZM74.9271 209.21C74.1477 209.21 73.4827 209.037 72.9321 208.692C72.3814 208.342 71.9591 207.866 71.6651 207.264C71.3757 206.662 71.2287 205.981 71.2241 205.22C71.2287 204.445 71.3804 203.759 71.6791 203.162C71.9824 202.56 72.4117 202.089 72.9671 201.748C73.5224 201.403 74.1827 201.23 74.9481 201.23C75.8067 201.23 76.5324 201.447 77.1251 201.881C77.7224 202.31 78.1121 202.898 78.2941 203.645L76.6141 204.1C76.4834 203.694 76.2664 203.379 75.9631 203.155C75.6597 202.926 75.3144 202.812 74.9271 202.812C74.4884 202.812 74.1267 202.917 73.8421 203.127C73.5574 203.332 73.3474 203.617 73.2121 203.981C73.0767 204.345 73.0091 204.758 73.0091 205.22C73.0091 205.939 73.1701 206.52 73.4921 206.963C73.8141 207.406 74.2924 207.628 74.9271 207.628C75.3751 207.628 75.7274 207.525 75.9841 207.32C76.2454 207.115 76.4414 206.818 76.5721 206.431L78.2941 206.816C78.0607 207.586 77.6524 208.179 77.0691 208.594C76.4857 209.005 75.7717 209.21 74.9271 209.21ZM82.9287 209.21C82.1634 209.21 81.4914 209.044 80.9127 208.713C80.3341 208.382 79.8814 207.922 79.5547 207.334C79.2327 206.746 79.0717 206.069 79.0717 205.304C79.0717 204.478 79.2304 203.762 79.5477 203.155C79.8651 202.544 80.3061 202.07 80.8707 201.734C81.4354 201.398 82.0887 201.23 82.8307 201.23C83.6147 201.23 84.2797 201.414 84.8257 201.783C85.3764 202.147 85.7847 202.663 86.0507 203.33C86.3167 203.997 86.4171 204.784 86.3517 205.689H84.6787V205.073C84.6741 204.252 84.5294 203.652 84.2447 203.274C83.9601 202.896 83.5121 202.707 82.9007 202.707C82.2101 202.707 81.6967 202.922 81.3607 203.351C81.0247 203.776 80.8567 204.399 80.8567 205.22C80.8567 205.985 81.0247 206.578 81.3607 206.998C81.6967 207.418 82.1867 207.628 82.8307 207.628C83.2461 207.628 83.6031 207.537 83.9017 207.355C84.2051 207.168 84.4384 206.9 84.6017 206.55L86.2677 207.054C85.9784 207.735 85.5304 208.265 84.9237 208.643C84.3217 209.021 83.6567 209.21 82.9287 209.21ZM80.3247 205.689V204.415H85.5257V205.689H80.3247ZM88.0536 200.292V198.745H89.7406V200.292H88.0536ZM88.0536 209V201.44H89.7406V209H88.0536ZM93.8814 209L91.1374 201.44H92.8244L94.7284 206.921L96.6254 201.44H98.3194L95.5754 209H93.8814ZM102.739 209.21C101.974 209.21 101.302 209.044 100.723 208.713C100.145 208.382 99.6919 207.922 99.3653 207.334C99.0433 206.746 98.8823 206.069 98.8823 205.304C98.8823 204.478 99.0409 203.762 99.3583 203.155C99.6756 202.544 100.117 202.07 100.681 201.734C101.246 201.398 101.899 201.23 102.641 201.23C103.425 201.23 104.09 201.414 104.636 201.783C105.187 202.147 105.595 202.663 105.861 203.33C106.127 203.997 106.228 204.784 106.162 205.689H104.489V205.073C104.485 204.252 104.34 203.652 104.055 203.274C103.771 202.896 103.323 202.707 102.711 202.707C102.021 202.707 101.507 202.922 101.171 203.351C100.835 203.776 100.667 204.399 100.667 205.22C100.667 205.985 100.835 206.578 101.171 206.998C101.507 207.418 101.997 207.628 102.641 207.628C103.057 207.628 103.414 207.537 103.712 207.355C104.016 207.168 104.249 206.9 104.412 206.55L106.078 207.054C105.789 207.735 105.341 208.265 104.734 208.643C104.132 209.021 103.467 209.21 102.739 209.21ZM100.135 205.689V204.415H105.336V205.689H100.135ZM110.755 209.21C110.06 209.21 109.453 209.035 108.935 208.685C108.417 208.335 108.016 207.859 107.731 207.257C107.446 206.655 107.304 205.976 107.304 205.22C107.304 204.455 107.446 203.773 107.731 203.176C108.02 202.574 108.429 202.1 108.956 201.755C109.483 201.405 110.104 201.23 110.818 201.23C111.537 201.23 112.139 201.405 112.624 201.755C113.114 202.1 113.485 202.574 113.737 203.176C113.989 203.778 114.115 204.459 114.115 205.22C114.115 205.971 113.989 206.65 113.737 207.257C113.485 207.859 113.109 208.335 112.61 208.685C112.111 209.035 111.492 209.21 110.755 209.21ZM111.014 207.698C111.467 207.698 111.831 207.595 112.106 207.39C112.386 207.18 112.589 206.888 112.715 206.515C112.846 206.142 112.911 205.71 112.911 205.22C112.911 204.725 112.846 204.294 112.715 203.925C112.589 203.552 112.391 203.262 112.12 203.057C111.849 202.847 111.499 202.742 111.07 202.742C110.617 202.742 110.244 202.854 109.95 203.078C109.656 203.297 109.439 203.596 109.299 203.974C109.159 204.347 109.089 204.763 109.089 205.22C109.089 205.682 109.157 206.102 109.292 206.48C109.432 206.853 109.644 207.15 109.929 207.369C110.214 207.588 110.575 207.698 111.014 207.698ZM112.911 209V203.694H112.701V198.92H114.402V209H112.911ZM121.282 209.21C120.736 209.21 120.274 209.107 119.896 208.902C119.518 208.692 119.231 208.414 119.035 208.069C118.843 207.724 118.748 207.343 118.748 206.928C118.748 206.564 118.808 206.237 118.93 205.948C119.051 205.654 119.238 205.402 119.49 205.192C119.742 204.977 120.068 204.802 120.47 204.667C120.773 204.569 121.128 204.48 121.534 204.401C121.944 204.322 122.388 204.249 122.864 204.184C123.344 204.114 123.846 204.039 124.369 203.96L123.767 204.303C123.771 203.78 123.655 203.395 123.417 203.148C123.179 202.901 122.777 202.777 122.213 202.777C121.872 202.777 121.543 202.856 121.226 203.015C120.908 203.174 120.687 203.447 120.561 203.834L119.021 203.351C119.207 202.712 119.562 202.198 120.085 201.811C120.612 201.424 121.321 201.23 122.213 201.23C122.885 201.23 123.475 201.34 123.984 201.559C124.497 201.778 124.877 202.138 125.125 202.637C125.26 202.903 125.342 203.176 125.37 203.456C125.398 203.731 125.412 204.032 125.412 204.359V209H123.935V207.362L124.18 207.628C123.839 208.174 123.44 208.575 122.983 208.832C122.53 209.084 121.963 209.21 121.282 209.21ZM121.618 207.866C122 207.866 122.327 207.798 122.598 207.663C122.868 207.528 123.083 207.362 123.242 207.166C123.405 206.97 123.515 206.786 123.571 206.613C123.659 206.398 123.708 206.153 123.718 205.878C123.732 205.598 123.739 205.372 123.739 205.199L124.257 205.353C123.748 205.432 123.312 205.502 122.948 205.563C122.584 205.624 122.271 205.682 122.01 205.738C121.748 205.789 121.517 205.848 121.317 205.913C121.121 205.983 120.955 206.065 120.82 206.158C120.684 206.251 120.579 206.359 120.505 206.48C120.435 206.601 120.4 206.744 120.4 206.907C120.4 207.094 120.446 207.259 120.54 207.404C120.633 207.544 120.768 207.656 120.946 207.74C121.128 207.824 121.352 207.866 121.618 207.866ZM135.266 209V205.36C135.266 205.122 135.249 204.858 135.217 204.569C135.184 204.28 135.107 204.002 134.986 203.736C134.869 203.465 134.692 203.244 134.454 203.071C134.22 202.898 133.903 202.812 133.502 202.812C133.287 202.812 133.075 202.847 132.865 202.917C132.655 202.987 132.463 203.108 132.291 203.281C132.123 203.449 131.987 203.682 131.885 203.981C131.782 204.275 131.731 204.653 131.731 205.115L130.73 204.688C130.73 204.044 130.853 203.461 131.101 202.938C131.353 202.415 131.721 202 132.207 201.692C132.692 201.379 133.289 201.223 133.999 201.223C134.559 201.223 135.021 201.316 135.385 201.503C135.749 201.69 136.038 201.928 136.253 202.217C136.467 202.506 136.626 202.814 136.729 203.141C136.831 203.468 136.897 203.778 136.925 204.072C136.957 204.361 136.974 204.597 136.974 204.779V209H135.266ZM130.023 209V201.44H131.528V203.785H131.731V209H130.023ZM142.114 209.21C141.349 209.21 140.677 209.044 140.098 208.713C139.52 208.382 139.067 207.922 138.74 207.334C138.418 206.746 138.257 206.069 138.257 205.304C138.257 204.478 138.416 203.762 138.733 203.155C139.051 202.544 139.492 202.07 140.056 201.734C140.621 201.398 141.274 201.23 142.016 201.23C142.8 201.23 143.465 201.414 144.011 201.783C144.562 202.147 144.97 202.663 145.236 203.33C145.502 203.997 145.603 204.784 145.537 205.689H143.864V205.073C143.86 204.252 143.715 203.652 143.43 203.274C143.146 202.896 142.698 202.707 142.086 202.707C141.396 202.707 140.882 202.922 140.546 203.351C140.21 203.776 140.042 204.399 140.042 205.22C140.042 205.985 140.21 206.578 140.546 206.998C140.882 207.418 141.372 207.628 142.016 207.628C142.432 207.628 142.789 207.537 143.087 207.355C143.391 207.168 143.624 206.9 143.787 206.55L145.453 207.054C145.164 207.735 144.716 208.265 144.109 208.643C143.507 209.021 142.842 209.21 142.114 209.21ZM139.51 205.689V204.415H144.711V205.689H139.51ZM148.436 209L146.126 201.426L147.778 201.44L149.255 206.291L150.753 201.44H152.174L153.665 206.291L155.149 201.44H156.801L154.491 209H153.175L151.46 203.799L149.752 209H148.436ZM160.867 209V198.92H167.377V200.502H162.554V202.987H166.537V204.569H162.554V207.418H167.377V209H160.867ZM178.135 209V204.408C178.135 203.89 178.007 203.486 177.75 203.197C177.494 202.903 177.146 202.756 176.707 202.756C176.437 202.756 176.194 202.819 175.979 202.945C175.765 203.066 175.594 203.248 175.468 203.491C175.342 203.729 175.279 204.014 175.279 204.345L174.53 203.904C174.526 203.381 174.642 202.922 174.88 202.525C175.123 202.124 175.45 201.811 175.86 201.587C176.271 201.363 176.728 201.251 177.232 201.251C178.068 201.251 178.707 201.503 179.15 202.007C179.598 202.506 179.822 203.164 179.822 203.981V209H178.135ZM169.042 209V201.44H170.533V203.785H170.743V209H169.042ZM173.599 209V204.429C173.599 203.902 173.471 203.491 173.214 203.197C172.958 202.903 172.608 202.756 172.164 202.756C171.735 202.756 171.39 202.903 171.128 203.197C170.872 203.491 170.743 203.874 170.743 204.345L169.987 203.841C169.987 203.351 170.109 202.91 170.351 202.518C170.594 202.126 170.921 201.818 171.331 201.594C171.747 201.365 172.211 201.251 172.724 201.251C173.289 201.251 173.76 201.372 174.138 201.615C174.521 201.853 174.806 202.18 174.992 202.595C175.184 203.006 175.279 203.47 175.279 203.988V209H173.599ZM183.762 209.21C183.216 209.21 182.754 209.107 182.376 208.902C181.998 208.692 181.711 208.414 181.515 208.069C181.324 207.724 181.228 207.343 181.228 206.928C181.228 206.564 181.289 206.237 181.41 205.948C181.531 205.654 181.718 205.402 181.97 205.192C182.222 204.977 182.549 204.802 182.95 204.667C183.253 204.569 183.608 204.48 184.014 204.401C184.425 204.322 184.868 204.249 185.344 204.184C185.825 204.114 186.326 204.039 186.849 203.96L186.247 204.303C186.252 203.78 186.135 203.395 185.897 203.148C185.659 202.901 185.258 202.777 184.693 202.777C184.352 202.777 184.023 202.856 183.706 203.015C183.389 203.174 183.167 203.447 183.041 203.834L181.501 203.351C181.688 202.712 182.042 202.198 182.565 201.811C183.092 201.424 183.802 201.23 184.693 201.23C185.365 201.23 185.955 201.34 186.464 201.559C186.977 201.778 187.358 202.138 187.605 202.637C187.74 202.903 187.822 203.176 187.85 203.456C187.878 203.731 187.892 204.032 187.892 204.359V209H186.415V207.362L186.66 207.628C186.319 208.174 185.92 208.575 185.463 208.832C185.01 209.084 184.443 209.21 183.762 209.21ZM184.098 207.866C184.481 207.866 184.807 207.798 185.078 207.663C185.349 207.528 185.563 207.362 185.722 207.166C185.885 206.97 185.995 206.786 186.051 206.613C186.14 206.398 186.189 206.153 186.198 205.878C186.212 205.598 186.219 205.372 186.219 205.199L186.737 205.353C186.228 205.432 185.792 205.502 185.428 205.563C185.064 205.624 184.751 205.682 184.49 205.738C184.229 205.789 183.998 205.848 183.797 205.913C183.601 205.983 183.435 206.065 183.3 206.158C183.165 206.251 183.06 206.359 182.985 206.48C182.915 206.601 182.88 206.744 182.88 206.907C182.88 207.094 182.927 207.259 183.02 207.404C183.113 207.544 183.249 207.656 183.426 207.74C183.608 207.824 183.832 207.866 184.098 207.866ZM189.854 200.292V198.745H191.541V200.292H189.854ZM189.854 209V201.44H191.541V209H189.854ZM193.778 209V198.71H195.465V209H193.778Z" fill="white"/>
<path d="M29.5456 196.005C29.4973 195.871 29.4881 195.726 29.5192 195.587C29.5502 195.448 29.6201 195.32 29.7208 195.22C29.8215 195.119 29.9488 195.049 30.0878 195.018C30.2268 194.987 30.3717 194.996 30.5056 195.045L47.0056 201.045C47.1484 201.096 47.2721 201.19 47.3604 201.314C47.4486 201.437 47.4973 201.585 47.4999 201.737C47.5025 201.889 47.4589 202.038 47.375 202.164C47.291 202.291 47.1706 202.389 47.0296 202.446L40.3801 205.105L36.0301 200.47L34.9696 201.531L39.4396 206.295L36.9466 212.529C36.8902 212.669 36.7922 212.79 36.6657 212.874C36.5393 212.958 36.3903 213.002 36.2384 212.999C36.0865 212.997 35.939 212.949 35.8153 212.86C35.6916 212.772 35.5976 212.649 35.5456 212.506L29.5456 196.005Z" fill="white"/>
<path d="M29.5456 196.005C29.4973 195.871 29.4881 195.726 29.5192 195.587C29.5502 195.448 29.6201 195.32 29.7208 195.22C29.8215 195.119 29.9488 195.049 30.0878 195.018C30.2268 194.987 30.3717 194.996 30.5056 195.045L47.0056 201.045C47.1484 201.096 47.2721 201.19 47.3604 201.314C47.4486 201.437 47.4973 201.585 47.4999 201.737C47.5025 201.889 47.4589 202.038 47.375 202.164C47.291 202.291 47.1706 202.389 47.0296 202.446L40.3801 205.105L36.0301 200.47L34.9696 201.531L39.4396 206.295L36.9466 212.529C36.8902 212.669 36.7922 212.79 36.6657 212.874C36.5393 212.958 36.3903 213.002 36.2384 212.999C36.0865 212.997 35.939 212.949 35.8153 212.86C35.6916 212.772 35.5976 212.649 35.5456 212.506L29.5456 196.005Z" fill="white"/>
<path opacity="0.8" d="M57.711 257.21C56.9737 257.21 56.3087 257.082 55.716 256.825C55.128 256.568 54.6427 256.202 54.26 255.726C53.882 255.245 53.6417 254.676 53.539 254.018L55.289 253.752C55.4383 254.349 55.744 254.811 56.206 255.138C56.6727 255.465 57.2093 255.628 57.816 255.628C58.1753 255.628 58.5137 255.572 58.831 255.46C59.1483 255.348 59.405 255.185 59.601 254.97C59.8017 254.755 59.902 254.492 59.902 254.179C59.902 254.039 59.8787 253.911 59.832 253.794C59.7853 253.673 59.7153 253.565 59.622 253.472C59.5333 253.379 59.4167 253.295 59.272 253.22C59.132 253.141 58.9687 253.073 58.782 253.017L56.178 252.247C55.954 252.182 55.7113 252.095 55.45 251.988C55.1933 251.876 54.9483 251.724 54.715 251.533C54.4863 251.337 54.2973 251.09 54.148 250.791C54.0033 250.488 53.931 250.114 53.931 249.671C53.931 249.022 54.0943 248.479 54.421 248.04C54.7523 247.597 55.1957 247.265 55.751 247.046C56.311 246.827 56.9317 246.719 57.613 246.724C58.3037 246.729 58.9197 246.848 59.461 247.081C60.0023 247.31 60.455 247.643 60.819 248.082C61.183 248.521 61.4397 249.05 61.589 249.671L59.776 249.986C59.7013 249.631 59.5567 249.33 59.342 249.083C59.132 248.831 58.873 248.64 58.565 248.509C58.2617 248.378 57.9373 248.308 57.592 248.299C57.256 248.294 56.9433 248.346 56.654 248.453C56.3693 248.556 56.1383 248.705 55.961 248.901C55.7883 249.097 55.702 249.326 55.702 249.587C55.702 249.834 55.7767 250.037 55.926 250.196C56.0753 250.35 56.2597 250.474 56.479 250.567C56.703 250.656 56.9293 250.73 57.158 250.791L58.964 251.295C59.2113 251.36 59.489 251.449 59.797 251.561C60.105 251.673 60.4013 251.829 60.686 252.03C60.9707 252.231 61.204 252.494 61.386 252.821C61.5727 253.148 61.666 253.563 61.666 254.067C61.666 254.59 61.5563 255.049 61.337 255.446C61.1223 255.838 60.8307 256.165 60.462 256.426C60.0933 256.687 59.671 256.883 59.195 257.014C58.7237 257.145 58.229 257.21 57.711 257.21ZM65.2952 257.21C64.7492 257.21 64.2872 257.107 63.9092 256.902C63.5312 256.692 63.2442 256.414 63.0482 256.069C62.8568 255.724 62.7612 255.343 62.7612 254.928C62.7612 254.564 62.8218 254.237 62.9432 253.948C63.0645 253.654 63.2512 253.402 63.5032 253.192C63.7552 252.977 64.0818 252.802 64.4832 252.667C64.7865 252.569 65.1412 252.48 65.5472 252.401C65.9578 252.322 66.4012 252.249 66.8772 252.184C67.3578 252.114 67.8595 252.039 68.3822 251.96L67.7802 252.303C67.7848 251.78 67.6682 251.395 67.4302 251.148C67.1922 250.901 66.7908 250.777 66.2262 250.777C65.8855 250.777 65.5565 250.856 65.2392 251.015C64.9218 251.174 64.7002 251.447 64.5742 251.834L63.0342 251.351C63.2208 250.712 63.5755 250.198 64.0982 249.811C64.6255 249.424 65.3348 249.23 66.2262 249.23C66.8982 249.23 67.4885 249.34 67.9972 249.559C68.5105 249.778 68.8908 250.138 69.1382 250.637C69.2735 250.903 69.3552 251.176 69.3832 251.456C69.4112 251.731 69.4252 252.032 69.4252 252.359V257H67.9482V255.362L68.1932 255.628C67.8525 256.174 67.4535 256.575 66.9962 256.832C66.5435 257.084 65.9765 257.21 65.2952 257.21ZM65.6312 255.866C66.0138 255.866 66.3405 255.798 66.6112 255.663C66.8818 255.528 67.0965 255.362 67.2552 255.166C67.4185 254.97 67.5282 254.786 67.5842 254.613C67.6728 254.398 67.7218 254.153 67.7312 253.878C67.7452 253.598 67.7522 253.372 67.7522 253.199L68.2702 253.353C67.7615 253.432 67.3252 253.502 66.9612 253.563C66.5972 253.624 66.2845 253.682 66.0232 253.738C65.7618 253.789 65.5308 253.848 65.3302 253.913C65.1342 253.983 64.9685 254.065 64.8332 254.158C64.6978 254.251 64.5928 254.359 64.5182 254.48C64.4482 254.601 64.4132 254.744 64.4132 254.907C64.4132 255.094 64.4598 255.259 64.5532 255.404C64.6465 255.544 64.7818 255.656 64.9592 255.74C65.1412 255.824 65.3652 255.866 65.6312 255.866ZM73.0181 257L70.2741 249.44H71.9611L73.8651 254.921L75.7621 249.44H77.4561L74.7121 257H73.0181ZM81.876 257.21C81.1107 257.21 80.4387 257.044 79.86 256.713C79.2813 256.382 78.8287 255.922 78.502 255.334C78.18 254.746 78.019 254.069 78.019 253.304C78.019 252.478 78.1777 251.762 78.495 251.155C78.8123 250.544 79.2533 250.07 79.818 249.734C80.3827 249.398 81.036 249.23 81.778 249.23C82.562 249.23 83.227 249.414 83.773 249.783C84.3237 250.147 84.732 250.663 84.998 251.33C85.264 251.997 85.3643 252.784 85.299 253.689H83.626V253.073C83.6213 252.252 83.4767 251.652 83.192 251.274C82.9073 250.896 82.4593 250.707 81.848 250.707C81.1573 250.707 80.644 250.922 80.308 251.351C79.972 251.776 79.804 252.399 79.804 253.22C79.804 253.985 79.972 254.578 80.308 254.998C80.644 255.418 81.134 255.628 81.778 255.628C82.1933 255.628 82.5503 255.537 82.849 255.355C83.1523 255.168 83.3857 254.9 83.549 254.55L85.215 255.054C84.9257 255.735 84.4777 256.265 83.871 256.643C83.269 257.021 82.604 257.21 81.876 257.21ZM79.272 253.689V252.415H84.473V253.689H79.272ZM89.8919 257.21C89.1965 257.21 88.5899 257.035 88.0719 256.685C87.5539 256.335 87.1525 255.859 86.8679 255.257C86.5832 254.655 86.4409 253.976 86.4409 253.22C86.4409 252.455 86.5832 251.773 86.8679 251.176C87.1572 250.574 87.5655 250.1 88.0929 249.755C88.6202 249.405 89.2409 249.23 89.9549 249.23C90.6735 249.23 91.2755 249.405 91.7609 249.755C92.2509 250.1 92.6219 250.574 92.8739 251.176C93.1259 251.778 93.2519 252.459 93.2519 253.22C93.2519 253.971 93.1259 254.65 92.8739 255.257C92.6219 255.859 92.2462 256.335 91.7469 256.685C91.2475 257.035 90.6292 257.21 89.8919 257.21ZM90.1509 255.698C90.6035 255.698 90.9675 255.595 91.2429 255.39C91.5229 255.18 91.7259 254.888 91.8519 254.515C91.9825 254.142 92.0479 253.71 92.0479 253.22C92.0479 252.725 91.9825 252.294 91.8519 251.925C91.7259 251.552 91.5275 251.262 91.2569 251.057C90.9862 250.847 90.6362 250.742 90.2069 250.742C89.7542 250.742 89.3809 250.854 89.0869 251.078C88.7929 251.297 88.5759 251.596 88.4359 251.974C88.2959 252.347 88.2259 252.763 88.2259 253.22C88.2259 253.682 88.2935 254.102 88.4289 254.48C88.5689 254.853 88.7812 255.15 89.0659 255.369C89.3505 255.588 89.7122 255.698 90.1509 255.698ZM92.0479 257V251.694H91.8379V246.92H93.5389V257H92.0479ZM98.3042 257V246.92H101.517C101.601 246.92 101.767 246.922 102.014 246.927C102.266 246.932 102.509 246.948 102.742 246.976C103.54 247.079 104.215 247.363 104.765 247.83C105.321 248.292 105.741 248.882 106.025 249.601C106.31 250.32 106.452 251.106 106.452 251.96C106.452 252.814 106.31 253.6 106.025 254.319C105.741 255.038 105.321 255.63 104.765 256.097C104.215 256.559 103.54 256.841 102.742 256.944C102.514 256.972 102.273 256.988 102.021 256.993C101.769 256.998 101.601 257 101.517 257H98.3042ZM100.019 255.411H101.517C101.657 255.411 101.835 255.406 102.049 255.397C102.269 255.388 102.462 255.367 102.63 255.334C103.106 255.245 103.494 255.033 103.792 254.697C104.091 254.361 104.31 253.953 104.45 253.472C104.595 252.991 104.667 252.487 104.667 251.96C104.667 251.414 104.595 250.901 104.45 250.42C104.306 249.939 104.082 249.536 103.778 249.209C103.48 248.882 103.097 248.675 102.63 248.586C102.462 248.549 102.269 248.528 102.049 248.523C101.835 248.514 101.657 248.509 101.517 248.509H100.019V255.411ZM108.107 257V249.44H109.598V251.281L109.416 251.043C109.509 250.791 109.633 250.562 109.787 250.357C109.946 250.147 110.135 249.974 110.354 249.839C110.541 249.713 110.746 249.615 110.97 249.545C111.199 249.47 111.432 249.426 111.67 249.412C111.908 249.393 112.139 249.403 112.363 249.44V251.015C112.139 250.95 111.88 250.929 111.586 250.952C111.297 250.975 111.035 251.057 110.802 251.197C110.569 251.323 110.377 251.484 110.228 251.68C110.083 251.876 109.976 252.1 109.906 252.352C109.836 252.599 109.801 252.868 109.801 253.157V257H108.107ZM115.635 257.21C115.089 257.21 114.627 257.107 114.249 256.902C113.871 256.692 113.584 256.414 113.388 256.069C113.197 255.724 113.101 255.343 113.101 254.928C113.101 254.564 113.162 254.237 113.283 253.948C113.404 253.654 113.591 253.402 113.843 253.192C114.095 252.977 114.422 252.802 114.823 252.667C115.126 252.569 115.481 252.48 115.887 252.401C116.298 252.322 116.741 252.249 117.217 252.184C117.698 252.114 118.199 252.039 118.722 251.96L118.12 252.303C118.125 251.78 118.008 251.395 117.77 251.148C117.532 250.901 117.131 250.777 116.566 250.777C116.225 250.777 115.896 250.856 115.579 251.015C115.262 251.174 115.04 251.447 114.914 251.834L113.374 251.351C113.561 250.712 113.915 250.198 114.438 249.811C114.965 249.424 115.675 249.23 116.566 249.23C117.238 249.23 117.828 249.34 118.337 249.559C118.85 249.778 119.231 250.138 119.478 250.637C119.613 250.903 119.695 251.176 119.723 251.456C119.751 251.731 119.765 252.032 119.765 252.359V257H118.288V255.362L118.533 255.628C118.192 256.174 117.793 256.575 117.336 256.832C116.883 257.084 116.316 257.21 115.635 257.21ZM115.971 255.866C116.354 255.866 116.68 255.798 116.951 255.663C117.222 255.528 117.436 255.362 117.595 255.166C117.758 254.97 117.868 254.786 117.924 254.613C118.013 254.398 118.062 254.153 118.071 253.878C118.085 253.598 118.092 253.372 118.092 253.199L118.61 253.353C118.101 253.432 117.665 253.502 117.301 253.563C116.937 253.624 116.624 253.682 116.363 253.738C116.102 253.789 115.871 253.848 115.67 253.913C115.474 253.983 115.308 254.065 115.173 254.158C115.038 254.251 114.933 254.359 114.858 254.48C114.788 254.601 114.753 254.744 114.753 254.907C114.753 255.094 114.8 255.259 114.893 255.404C114.986 255.544 115.122 255.656 115.299 255.74C115.481 255.824 115.705 255.866 115.971 255.866ZM122.245 257V249.321C122.245 249.13 122.252 248.92 122.266 248.691C122.28 248.458 122.32 248.227 122.385 247.998C122.451 247.769 122.57 247.562 122.742 247.375C122.957 247.137 123.188 246.974 123.435 246.885C123.687 246.792 123.935 246.74 124.177 246.731C124.42 246.717 124.632 246.71 124.814 246.71H125.759V248.082H124.884C124.562 248.082 124.322 248.164 124.163 248.327C124.009 248.486 123.932 248.696 123.932 248.957V257H122.245ZM121.027 250.763V249.44H125.759V250.763H121.027ZM131.309 257C130.81 257.093 130.32 257.133 129.839 257.119C129.363 257.11 128.936 257.023 128.558 256.86C128.18 256.692 127.893 256.428 127.697 256.069C127.525 255.742 127.434 255.409 127.424 255.068C127.415 254.727 127.41 254.342 127.41 253.913V247.34H129.09V253.815C129.09 254.118 129.093 254.384 129.097 254.613C129.107 254.842 129.156 255.028 129.244 255.173C129.412 255.453 129.681 255.609 130.049 255.642C130.418 255.675 130.838 255.656 131.309 255.586V257ZM126.038 250.763V249.44H131.309V250.763H126.038Z" fill="white"/>
<path d="M45.71 247.039C45.37 247.379 45.04 247.709 45.03 248.039C45 248.359 45.34 248.689 45.66 248.999C46.14 249.499 46.61 249.949 46.59 250.439C46.57 250.929 46.06 251.439 45.55 251.939L41.42 256.079L40 254.659L44.25 250.419L43.29 249.459L41.87 250.869L38.12 247.119L41.96 243.289C42.35 242.899 43 242.899 43.37 243.289L45.71 245.629C46.1 245.999 46.1 246.649 45.71 247.039ZM28 257.249L37.56 247.679L41.31 251.429L31.75 260.999H28V257.249Z" fill="white"/>
<path opacity="0.8" d="M53.98 305V294.92H55.499L58.985 302.06L62.471 294.92H63.99V305H62.415V298.539L59.321 305H58.649L55.562 298.539V305H53.98ZM69.2956 305.21C68.5396 305.21 67.8792 305.04 67.3146 304.699C66.7499 304.358 66.3112 303.889 65.9986 303.292C65.6906 302.69 65.5366 301.999 65.5366 301.22C65.5366 300.427 65.6952 299.731 66.0126 299.134C66.3299 298.537 66.7709 298.07 67.3356 297.734C67.9002 297.398 68.5536 297.23 69.2956 297.23C70.0562 297.23 70.7189 297.4 71.2836 297.741C71.8482 298.082 72.2869 298.553 72.5996 299.155C72.9122 299.752 73.0686 300.441 73.0686 301.22C73.0686 302.004 72.9099 302.697 72.5926 303.299C72.2799 303.896 71.8412 304.365 71.2766 304.706C70.7119 305.042 70.0516 305.21 69.2956 305.21ZM69.2956 303.628C69.9676 303.628 70.4669 303.404 70.7936 302.956C71.1202 302.508 71.2836 301.929 71.2836 301.22C71.2836 300.487 71.1179 299.904 70.7866 299.47C70.4552 299.031 69.9582 298.812 69.2956 298.812C68.8429 298.812 68.4696 298.915 68.1756 299.12C67.8862 299.321 67.6716 299.603 67.5316 299.967C67.3916 300.326 67.3216 300.744 67.3216 301.22C67.3216 301.953 67.4872 302.538 67.8186 302.977C68.1546 303.411 68.6469 303.628 69.2956 303.628ZM76.3814 305L73.6374 297.44H75.3244L77.2284 302.921L79.1254 297.44H80.8194L78.0754 305H76.3814ZM85.2393 305.21C84.4739 305.21 83.8019 305.044 83.2233 304.713C82.6446 304.382 82.1919 303.922 81.8653 303.334C81.5433 302.746 81.3823 302.069 81.3823 301.304C81.3823 300.478 81.5409 299.762 81.8583 299.155C82.1756 298.544 82.6166 298.07 83.1813 297.734C83.7459 297.398 84.3993 297.23 85.1413 297.23C85.9253 297.23 86.5903 297.414 87.1363 297.783C87.6869 298.147 88.0953 298.663 88.3613 299.33C88.6273 299.997 88.7276 300.784 88.6623 301.689H86.9893V301.073C86.9846 300.252 86.8399 299.652 86.5553 299.274C86.2706 298.896 85.8226 298.707 85.2113 298.707C84.5206 298.707 84.0073 298.922 83.6713 299.351C83.3353 299.776 83.1673 300.399 83.1673 301.22C83.1673 301.985 83.3353 302.578 83.6713 302.998C84.0073 303.418 84.4973 303.628 85.1413 303.628C85.5566 303.628 85.9136 303.537 86.2123 303.355C86.5156 303.168 86.7489 302.9 86.9123 302.55L88.5783 303.054C88.2889 303.735 87.8409 304.265 87.2343 304.643C86.6323 305.021 85.9673 305.21 85.2393 305.21ZM82.6353 301.689V300.415H87.8363V301.689H82.6353ZM93.2551 305.21C92.5598 305.21 91.9531 305.035 91.4351 304.685C90.9171 304.335 90.5158 303.859 90.2311 303.257C89.9465 302.655 89.8041 301.976 89.8041 301.22C89.8041 300.455 89.9465 299.773 90.2311 299.176C90.5205 298.574 90.9288 298.1 91.4561 297.755C91.9835 297.405 92.6041 297.23 93.3181 297.23C94.0368 297.23 94.6388 297.405 95.1241 297.755C95.6141 298.1 95.9851 298.574 96.2371 299.176C96.4891 299.778 96.6151 300.459 96.6151 301.22C96.6151 301.971 96.4891 302.65 96.2371 303.257C95.9851 303.859 95.6095 304.335 95.1101 304.685C94.6108 305.035 93.9925 305.21 93.2551 305.21ZM93.5141 303.698C93.9668 303.698 94.3308 303.595 94.6061 303.39C94.8861 303.18 95.0891 302.888 95.2151 302.515C95.3458 302.142 95.4111 301.71 95.4111 301.22C95.4111 300.725 95.3458 300.294 95.2151 299.925C95.0891 299.552 94.8908 299.262 94.6201 299.057C94.3495 298.847 93.9995 298.742 93.5701 298.742C93.1175 298.742 92.7441 298.854 92.4501 299.078C92.1561 299.297 91.9391 299.596 91.7991 299.974C91.6591 300.347 91.5891 300.763 91.5891 301.22C91.5891 301.682 91.6568 302.102 91.7921 302.48C91.9321 302.853 92.1445 303.15 92.4291 303.369C92.7138 303.588 93.0755 303.698 93.5141 303.698ZM95.4111 305V299.694H95.2011V294.92H96.9021V305H95.4111ZM104.552 305.189C104.048 305.189 103.572 305.091 103.124 304.895C102.676 304.699 102.286 304.421 101.955 304.062C101.628 303.703 101.392 303.278 101.248 302.788L102.879 302.347C102.995 302.748 103.208 303.059 103.516 303.278C103.828 303.493 104.171 303.598 104.544 303.593C104.876 303.593 105.172 303.516 105.434 303.362C105.695 303.208 105.9 303 106.05 302.739C106.199 302.473 106.274 302.177 106.274 301.85C106.274 301.351 106.113 300.933 105.791 300.597C105.469 300.261 105.053 300.093 104.544 300.093C104.391 300.093 104.239 300.114 104.09 300.156C103.945 300.198 103.805 300.256 103.67 300.331L102.9 299.001L106.288 296.103L106.435 296.509H101.64V294.92H107.821V296.516L105.098 299.134L105.084 298.637C105.695 298.679 106.215 298.849 106.645 299.148C107.079 299.447 107.41 299.832 107.639 300.303C107.872 300.774 107.989 301.29 107.989 301.85C107.989 302.485 107.832 303.054 107.52 303.558C107.212 304.062 106.796 304.461 106.274 304.755C105.756 305.044 105.182 305.189 104.552 305.189ZM112.605 305V294.92H119.115V296.502H114.292V298.987H118.275V300.569H114.292V303.418H119.115V305H112.605ZM129.873 305V300.408C129.873 299.89 129.745 299.486 129.488 299.197C129.232 298.903 128.884 298.756 128.445 298.756C128.175 298.756 127.932 298.819 127.717 298.945C127.503 299.066 127.332 299.248 127.206 299.491C127.08 299.729 127.017 300.014 127.017 300.345L126.268 299.904C126.264 299.381 126.38 298.922 126.618 298.525C126.861 298.124 127.188 297.811 127.598 297.587C128.009 297.363 128.466 297.251 128.97 297.251C129.806 297.251 130.445 297.503 130.888 298.007C131.336 298.506 131.56 299.164 131.56 299.981V305H129.873ZM120.78 305V297.44H122.271V299.785H122.481V305H120.78ZM125.337 305V300.429C125.337 299.902 125.209 299.491 124.952 299.197C124.696 298.903 124.346 298.756 123.902 298.756C123.473 298.756 123.128 298.903 122.866 299.197C122.61 299.491 122.481 299.874 122.481 300.345L121.725 299.841C121.725 299.351 121.847 298.91 122.089 298.518C122.332 298.126 122.659 297.818 123.069 297.594C123.485 297.365 123.949 297.251 124.462 297.251C125.027 297.251 125.498 297.372 125.876 297.615C126.259 297.853 126.544 298.18 126.73 298.595C126.922 299.006 127.017 299.47 127.017 299.988V305H125.337ZM135.5 305.21C134.954 305.21 134.492 305.107 134.114 304.902C133.736 304.692 133.449 304.414 133.253 304.069C133.062 303.724 132.966 303.343 132.966 302.928C132.966 302.564 133.027 302.237 133.148 301.948C133.27 301.654 133.456 301.402 133.708 301.192C133.96 300.977 134.287 300.802 134.688 300.667C134.992 300.569 135.346 300.48 135.752 300.401C136.163 300.322 136.606 300.249 137.082 300.184C137.563 300.114 138.065 300.039 138.587 299.96L137.985 300.303C137.99 299.78 137.873 299.395 137.635 299.148C137.397 298.901 136.996 298.777 136.431 298.777C136.091 298.777 135.762 298.856 135.444 299.015C135.127 299.174 134.905 299.447 134.779 299.834L133.239 299.351C133.426 298.712 133.781 298.198 134.303 297.811C134.831 297.424 135.54 297.23 136.431 297.23C137.103 297.23 137.694 297.34 138.202 297.559C138.716 297.778 139.096 298.138 139.343 298.637C139.479 298.903 139.56 299.176 139.588 299.456C139.616 299.731 139.63 300.032 139.63 300.359V305H138.153V303.362L138.398 303.628C138.058 304.174 137.659 304.575 137.201 304.832C136.749 305.084 136.182 305.21 135.5 305.21ZM135.836 303.866C136.219 303.866 136.546 303.798 136.816 303.663C137.087 303.528 137.302 303.362 137.46 303.166C137.624 302.97 137.733 302.786 137.789 302.613C137.878 302.398 137.927 302.153 137.936 301.878C137.95 301.598 137.957 301.372 137.957 301.199L138.475 301.353C137.967 301.432 137.53 301.502 137.166 301.563C136.802 301.624 136.49 301.682 136.228 301.738C135.967 301.789 135.736 301.848 135.535 301.913C135.339 301.983 135.174 302.065 135.038 302.158C134.903 302.251 134.798 302.359 134.723 302.48C134.653 302.601 134.618 302.744 134.618 302.907C134.618 303.094 134.665 303.259 134.758 303.404C134.852 303.544 134.987 303.656 135.164 303.74C135.346 303.824 135.57 303.866 135.836 303.866ZM141.593 296.292V294.745H143.28V296.292H141.593ZM141.593 305V297.44H143.28V305H141.593ZM145.516 305V294.71H147.203V305H145.516ZM152.219 305.21C151.286 305.21 150.528 305 149.944 304.58C149.361 304.16 149.006 303.57 148.88 302.809L150.602 302.543C150.691 302.916 150.887 303.21 151.19 303.425C151.494 303.64 151.876 303.747 152.338 303.747C152.744 303.747 153.057 303.668 153.276 303.509C153.5 303.346 153.612 303.124 153.612 302.844C153.612 302.671 153.57 302.534 153.486 302.431C153.407 302.324 153.23 302.221 152.954 302.123C152.679 302.025 152.257 301.901 151.687 301.752C151.053 301.584 150.549 301.404 150.175 301.213C149.802 301.017 149.534 300.786 149.37 300.52C149.207 300.254 149.125 299.932 149.125 299.554C149.125 299.083 149.249 298.672 149.496 298.322C149.744 297.972 150.089 297.704 150.532 297.517C150.976 297.326 151.498 297.23 152.1 297.23C152.688 297.23 153.209 297.321 153.661 297.503C154.119 297.685 154.487 297.944 154.767 298.28C155.047 298.616 155.22 299.01 155.285 299.463L153.563 299.771C153.521 299.449 153.374 299.195 153.122 299.008C152.875 298.821 152.544 298.716 152.128 298.693C151.732 298.67 151.412 298.73 151.169 298.875C150.927 299.015 150.805 299.213 150.805 299.47C150.805 299.615 150.854 299.738 150.952 299.841C151.05 299.944 151.246 300.046 151.54 300.149C151.839 300.252 152.282 300.378 152.87 300.527C153.472 300.681 153.953 300.858 154.312 301.059C154.676 301.255 154.938 301.491 155.096 301.766C155.26 302.041 155.341 302.375 155.341 302.767C155.341 303.528 155.064 304.125 154.508 304.559C153.958 304.993 153.195 305.21 152.219 305.21Z" fill="white"/>
<path d="M36.4693 290.469C36.61 290.329 36.8006 290.25 36.9993 290.25C37.1981 290.25 37.3887 290.329 37.5293 290.469L40.2293 293.169C40.3698 293.31 40.4487 293.501 40.4487 293.699C40.4487 293.898 40.3698 294.089 40.2293 294.229H37.7493V299.249H42.7693V296.769C42.91 296.629 43.1006 296.55 43.2993 296.55C43.4981 296.55 43.6887 296.629 43.8293 296.769L46.5293 299.469C46.6698 299.61 46.7487 299.801 46.7487 299.999C46.7487 300.198 46.6698 300.389 46.5293 300.529L43.8293 303.229C43.6887 303.37 43.4981 303.449 43.2993 303.449C43.1006 303.449 42.91 303.37 42.7693 303.229V300.749H37.7493V305.769H40.2293C40.3698 305.91 40.4487 306.101 40.4487 306.299C40.4487 306.498 40.3698 306.689 40.2293 306.829L37.5293 309.529C37.3887 309.67 37.1981 309.749 36.9993 309.749C36.8006 309.749 36.61 309.67 36.4693 309.529L33.7693 306.829C33.6289 306.689 33.55 306.498 33.55 306.299C33.55 306.101 33.6289 305.91 33.7693 305.769H36.2493V300.749H31.2293V303.229C31.0887 303.37 30.8981 303.449 30.6993 303.449C30.5006 303.449 30.31 303.37 30.1693 303.229L27.4693 300.529C27.3289 300.389 27.25 300.198 27.25 299.999C27.25 299.801 27.3289 299.61 27.4693 299.469L30.1693 296.769C30.31 296.629 30.5006 296.55 30.6993 296.55C30.8981 296.55 31.0887 296.629 31.2293 296.769V299.249H36.2493V294.229H33.7693C33.6289 294.089 33.55 293.898 33.55 293.699C33.55 293.501 33.6289 293.31 33.7693 293.169L36.4693 290.469Z" fill="white"/>
<path opacity="0.8" d="M53.98 17V6.92H60.49V8.502H55.667V10.987H59.65V12.569H55.667V15.418H60.49V17H53.98ZM71.2485 17V12.408C71.2485 11.89 71.1201 11.4863 70.8635 11.197C70.6068 10.903 70.2591 10.756 69.8205 10.756C69.5498 10.756 69.3071 10.819 69.0925 10.945C68.8778 11.0663 68.7075 11.2483 68.5815 11.491C68.4555 11.729 68.3925 12.0137 68.3925 12.345L67.6435 11.904C67.6388 11.3813 67.7555 10.9217 67.9935 10.525C68.2361 10.1237 68.5628 9.811 68.9735 9.587C69.3841 9.363 69.8415 9.251 70.3455 9.251C71.1808 9.251 71.8201 9.503 72.2635 10.007C72.7115 10.5063 72.9355 11.1643 72.9355 11.981V17H71.2485ZM62.1555 17V9.44H63.6465V11.785H63.8565V17H62.1555ZM66.7125 17V12.429C66.7125 11.9017 66.5841 11.491 66.3275 11.197C66.0708 10.903 65.7208 10.756 65.2775 10.756C64.8481 10.756 64.5028 10.903 64.2415 11.197C63.9848 11.491 63.8565 11.8737 63.8565 12.345L63.1005 11.841C63.1005 11.351 63.2218 10.91 63.4645 10.518C63.7071 10.126 64.0338 9.818 64.4445 9.594C64.8598 9.36533 65.3241 9.251 65.8375 9.251C66.4021 9.251 66.8735 9.37233 67.2515 9.615C67.6341 9.853 67.9188 10.1797 68.1055 10.595C68.2968 11.0057 68.3925 11.47 68.3925 11.988V17H66.7125ZM76.8753 17.21C76.3293 17.21 75.8673 17.1073 75.4893 16.902C75.1113 16.692 74.8243 16.4143 74.6283 16.069C74.4369 15.7237 74.3413 15.3433 74.3413 14.928C74.3413 14.564 74.4019 14.2373 74.5233 13.948C74.6446 13.654 74.8313 13.402 75.0833 13.192C75.3353 12.9773 75.6619 12.8023 76.0633 12.667C76.3666 12.569 76.7213 12.4803 77.1273 12.401C77.5379 12.3217 77.9813 12.2493 78.4573 12.184C78.9379 12.114 79.4396 12.0393 79.9623 11.96L79.3603 12.303C79.3649 11.7803 79.2483 11.3953 79.0103 11.148C78.7723 10.9007 78.3709 10.777 77.8063 10.777C77.4656 10.777 77.1366 10.8563 76.8193 11.015C76.5019 11.1737 76.2803 11.4467 76.1543 11.834L74.6143 11.351C74.8009 10.7117 75.1556 10.1983 75.6783 9.811C76.2056 9.42367 76.9149 9.23 77.8063 9.23C78.4783 9.23 79.0686 9.33967 79.5773 9.559C80.0906 9.77833 80.4709 10.1377 80.7183 10.637C80.8536 10.903 80.9353 11.176 80.9633 11.456C80.9913 11.7313 81.0053 12.0323 81.0053 12.359V17H79.5283V15.362L79.7733 15.628C79.4326 16.174 79.0336 16.5753 78.5763 16.832C78.1236 17.084 77.5566 17.21 76.8753 17.21ZM77.2113 15.866C77.5939 15.866 77.9206 15.7983 78.1913 15.663C78.4619 15.5277 78.6766 15.362 78.8353 15.166C78.9986 14.97 79.1083 14.7857 79.1643 14.613C79.2529 14.3983 79.3019 14.1533 79.3113 13.878C79.3253 13.598 79.3323 13.3717 79.3323 13.199L79.8503 13.353C79.3416 13.4323 78.9053 13.5023 78.5413 13.563C78.1773 13.6237 77.8646 13.682 77.6033 13.738C77.3419 13.7893 77.1109 13.8477 76.9103 13.913C76.7143 13.983 76.5486 14.0647 76.4133 14.158C76.2779 14.2513 76.1729 14.3587 76.0983 14.48C76.0283 14.6013 75.9933 14.7437 75.9933 14.907C75.9933 15.0937 76.0399 15.2593 76.1333 15.404C76.2266 15.544 76.3619 15.656 76.5393 15.74C76.7213 15.824 76.9453 15.866 77.2113 15.866ZM82.9677 8.292V6.745H84.6547V8.292H82.9677ZM82.9677 17V9.44H84.6547V17H82.9677ZM86.8915 17V6.71H88.5785V17H86.8915ZM97.209 17.21C96.4717 17.21 95.8067 17.0817 95.214 16.825C94.626 16.5683 94.1407 16.202 93.758 15.726C93.38 15.2453 93.1397 14.676 93.037 14.018L94.787 13.752C94.9364 14.3493 95.242 14.8113 95.704 15.138C96.1707 15.4647 96.7074 15.628 97.314 15.628C97.6734 15.628 98.0117 15.572 98.329 15.46C98.6464 15.348 98.903 15.1847 99.099 14.97C99.2997 14.7553 99.4 14.4917 99.4 14.179C99.4 14.039 99.3767 13.9107 99.33 13.794C99.2834 13.6727 99.2134 13.5653 99.12 13.472C99.0314 13.3787 98.9147 13.2947 98.77 13.22C98.63 13.1407 98.4667 13.073 98.28 13.017L95.676 12.247C95.452 12.1817 95.2094 12.0953 94.948 11.988C94.6914 11.876 94.4464 11.7243 94.213 11.533C93.9844 11.337 93.7954 11.0897 93.646 10.791C93.5014 10.4877 93.429 10.1143 93.429 9.671C93.429 9.02233 93.5924 8.47867 93.919 8.04C94.2504 7.59667 94.6937 7.26533 95.249 7.046C95.809 6.82667 96.4297 6.71933 97.111 6.724C97.8017 6.72867 98.4177 6.84767 98.959 7.081C99.5004 7.30967 99.953 7.64333 100.317 8.082C100.681 8.52067 100.938 9.05033 101.087 9.671L99.274 9.986C99.1994 9.63133 99.0547 9.33033 98.84 9.083C98.63 8.831 98.371 8.63967 98.063 8.509C97.7597 8.37833 97.4354 8.30833 97.09 8.299C96.754 8.29433 96.4414 8.34567 96.152 8.453C95.8674 8.55567 95.6364 8.705 95.459 8.901C95.2864 9.097 95.2 9.32567 95.2 9.587C95.2 9.83433 95.2747 10.0373 95.424 10.196C95.5734 10.35 95.7577 10.4737 95.977 10.567C96.201 10.6557 96.4274 10.7303 96.656 10.791L98.462 11.295C98.7094 11.3603 98.987 11.449 99.295 11.561C99.603 11.673 99.8994 11.8293 100.184 12.03C100.469 12.2307 100.702 12.4943 100.884 12.821C101.071 13.1477 101.164 13.563 101.164 14.067C101.164 14.5897 101.054 15.0493 100.835 15.446C100.62 15.838 100.329 16.1647 99.96 16.426C99.5914 16.6873 99.169 16.8833 98.693 17.014C98.2217 17.1447 97.727 17.21 97.209 17.21ZM106.116 17.21C105.351 17.21 104.679 17.0443 104.1 16.713C103.522 16.3817 103.069 15.922 102.742 15.334C102.42 14.746 102.259 14.0693 102.259 13.304C102.259 12.478 102.418 11.7617 102.735 11.155C103.053 10.5437 103.494 10.07 104.058 9.734C104.623 9.398 105.276 9.23 106.018 9.23C106.802 9.23 107.467 9.41433 108.013 9.783C108.564 10.147 108.972 10.6627 109.238 11.33C109.504 11.9973 109.605 12.7837 109.539 13.689H107.866V13.073C107.862 12.2517 107.717 11.652 107.432 11.274C107.148 10.896 106.7 10.707 106.088 10.707C105.398 10.707 104.884 10.9217 104.548 11.351C104.212 11.7757 104.044 12.3987 104.044 13.22C104.044 13.9853 104.212 14.578 104.548 14.998C104.884 15.418 105.374 15.628 106.018 15.628C106.434 15.628 106.791 15.537 107.089 15.355C107.393 15.1683 107.626 14.9 107.789 14.55L109.455 15.054C109.166 15.7353 108.718 16.265 108.111 16.643C107.509 17.021 106.844 17.21 106.116 17.21ZM103.512 13.689V12.415H108.713V13.689H103.512ZM116.125 17V13.36C116.125 13.122 116.109 12.8583 116.076 12.569C116.043 12.2797 115.966 12.002 115.845 11.736C115.728 11.4653 115.551 11.2437 115.313 11.071C115.08 10.8983 114.762 10.812 114.361 10.812C114.146 10.812 113.934 10.847 113.724 10.917C113.514 10.987 113.323 11.1083 113.15 11.281C112.982 11.449 112.847 11.6823 112.744 11.981C112.641 12.275 112.59 12.653 112.59 13.115L111.589 12.688C111.589 12.044 111.713 11.4607 111.96 10.938C112.212 10.4153 112.581 10 113.066 9.692C113.551 9.37933 114.149 9.223 114.858 9.223C115.418 9.223 115.88 9.31633 116.244 9.503C116.608 9.68967 116.897 9.92767 117.112 10.217C117.327 10.5063 117.485 10.8143 117.588 11.141C117.691 11.4677 117.756 11.778 117.784 12.072C117.817 12.3613 117.833 12.597 117.833 12.779V17H116.125ZM110.882 17V9.44H112.387V11.785H112.59V17H110.882ZM124.091 17C123.591 17.0933 123.101 17.133 122.621 17.119C122.145 17.1097 121.718 17.0233 121.34 16.86C120.962 16.692 120.675 16.4283 120.479 16.069C120.306 15.7423 120.215 15.4087 120.206 15.068C120.196 14.7273 120.192 14.3423 120.192 13.913V7.34H121.872V13.815C121.872 14.1183 121.874 14.3843 121.879 14.613C121.888 14.8417 121.937 15.0283 122.026 15.173C122.194 15.453 122.462 15.6093 122.831 15.642C123.199 15.6747 123.619 15.656 124.091 15.586V17ZM118.82 10.763V9.44H124.091V10.763H118.82ZM132.95 17C132.451 17.0933 131.961 17.133 131.48 17.119C131.004 17.1097 130.577 17.0233 130.199 16.86C129.821 16.692 129.534 16.4283 129.338 16.069C129.165 15.7423 129.074 15.4087 129.065 15.068C129.056 14.7273 129.051 14.3423 129.051 13.913V7.34H130.731V13.815C130.731 14.1183 130.733 14.3843 130.738 14.613C130.747 14.8417 130.796 15.0283 130.885 15.173C131.053 15.453 131.321 15.6093 131.69 15.642C132.059 15.6747 132.479 15.656 132.95 15.586V17ZM127.679 10.763V9.44H132.95V10.763H127.679ZM137.532 17.21C136.776 17.21 136.116 17.0397 135.551 16.699C134.986 16.3583 134.548 15.8893 134.235 15.292C133.927 14.69 133.773 13.9993 133.773 13.22C133.773 12.4267 133.932 11.7313 134.249 11.134C134.566 10.5367 135.007 10.07 135.572 9.734C136.137 9.398 136.79 9.23 137.532 9.23C138.293 9.23 138.955 9.40033 139.52 9.741C140.085 10.0817 140.523 10.553 140.836 11.155C141.149 11.7523 141.305 12.4407 141.305 13.22C141.305 14.004 141.146 14.697 140.829 15.299C140.516 15.8963 140.078 16.3653 139.513 16.706C138.948 17.042 138.288 17.21 137.532 17.21ZM137.532 15.628C138.204 15.628 138.703 15.404 139.03 14.956C139.357 14.508 139.52 13.9293 139.52 13.22C139.52 12.4873 139.354 11.904 139.023 11.47C138.692 11.0313 138.195 10.812 137.532 10.812C137.079 10.812 136.706 10.9147 136.412 11.12C136.123 11.3207 135.908 11.603 135.768 11.967C135.628 12.3263 135.558 12.744 135.558 13.22C135.558 13.9527 135.724 14.5383 136.055 14.977C136.391 15.411 136.883 15.628 137.532 15.628ZM148.534 17.189C148.03 17.189 147.554 17.091 147.106 16.895C146.658 16.699 146.268 16.4213 145.937 16.062C145.61 15.7027 145.375 15.278 145.23 14.788L146.861 14.347C146.978 14.7483 147.19 15.0587 147.498 15.278C147.811 15.4927 148.154 15.5977 148.527 15.593C148.858 15.593 149.155 15.516 149.416 15.362C149.677 15.208 149.883 15.0003 150.032 14.739C150.181 14.473 150.256 14.1767 150.256 13.85C150.256 13.3507 150.095 12.933 149.773 12.597C149.451 12.261 149.036 12.093 148.527 12.093C148.373 12.093 148.221 12.114 148.072 12.156C147.927 12.198 147.787 12.2563 147.652 12.331L146.882 11.001L150.27 8.103L150.417 8.509H145.622V6.92H151.803V8.516L149.08 11.134L149.066 10.637C149.677 10.679 150.198 10.8493 150.627 11.148C151.061 11.4467 151.392 11.8317 151.621 12.303C151.854 12.7743 151.971 13.29 151.971 13.85C151.971 14.4847 151.815 15.054 151.502 15.558C151.194 16.062 150.779 16.461 150.256 16.755C149.738 17.0443 149.164 17.189 148.534 17.189ZM156.587 17V6.92H160.752C160.85 6.92 160.976 6.92467 161.13 6.934C161.284 6.93867 161.427 6.95267 161.557 6.976C162.141 7.06467 162.621 7.25833 162.999 7.557C163.382 7.85567 163.664 8.23367 163.846 8.691C164.033 9.14367 164.126 9.64767 164.126 10.203C164.126 11.0243 163.919 11.7313 163.503 12.324C163.088 12.912 162.451 13.276 161.592 13.416L160.871 13.479H158.274V17H156.587ZM162.376 17L160.388 12.898L162.103 12.52L164.287 17H162.376ZM158.274 11.904H160.682C160.776 11.904 160.881 11.8993 160.997 11.89C161.114 11.8807 161.221 11.862 161.319 11.834C161.599 11.764 161.819 11.6403 161.977 11.463C162.141 11.2857 162.255 11.085 162.32 10.861C162.39 10.637 162.425 10.4177 162.425 10.203C162.425 9.98833 162.39 9.769 162.32 9.545C162.255 9.31633 162.141 9.11333 161.977 8.936C161.819 8.75867 161.599 8.635 161.319 8.565C161.221 8.537 161.114 8.52067 160.997 8.516C160.881 8.50667 160.776 8.502 160.682 8.502H158.274V11.904ZM169.267 17.21C168.501 17.21 167.829 17.0443 167.251 16.713C166.672 16.3817 166.219 15.922 165.893 15.334C165.571 14.746 165.41 14.0693 165.41 13.304C165.41 12.478 165.568 11.7617 165.886 11.155C166.203 10.5437 166.644 10.07 167.209 9.734C167.773 9.398 168.427 9.23 169.169 9.23C169.953 9.23 170.618 9.41433 171.164 9.783C171.714 10.147 172.123 10.6627 172.389 11.33C172.655 11.9973 172.755 12.7837 172.69 13.689H171.017V13.073C171.012 12.2517 170.867 11.652 170.583 11.274C170.298 10.896 169.85 10.707 169.239 10.707C168.548 10.707 168.035 10.9217 167.699 11.351C167.363 11.7757 167.195 12.3987 167.195 13.22C167.195 13.9853 167.363 14.578 167.699 14.998C168.035 15.418 168.525 15.628 169.169 15.628C169.584 15.628 169.941 15.537 170.24 15.355C170.543 15.1683 170.776 14.9 170.94 14.55L172.606 15.054C172.316 15.7353 171.868 16.265 171.262 16.643C170.66 17.021 169.995 17.21 169.267 17.21ZM166.663 13.689V12.415H171.864V13.689H166.663ZM177.534 17.21C176.755 17.21 176.09 17.0373 175.539 16.692C174.989 16.342 174.566 15.866 174.272 15.264C173.983 14.662 173.836 13.9807 173.831 13.22C173.836 12.4453 173.988 11.7593 174.286 11.162C174.59 10.56 175.019 10.0887 175.574 9.748C176.13 9.40267 176.79 9.23 177.555 9.23C178.414 9.23 179.14 9.447 179.732 9.881C180.33 10.3103 180.719 10.8983 180.901 11.645L179.221 12.1C179.091 11.694 178.874 11.379 178.57 11.155C178.267 10.9263 177.922 10.812 177.534 10.812C177.096 10.812 176.734 10.917 176.449 11.127C176.165 11.3323 175.955 11.617 175.819 11.981C175.684 12.345 175.616 12.758 175.616 13.22C175.616 13.9387 175.777 14.5197 176.099 14.963C176.421 15.4063 176.9 15.628 177.534 15.628C177.982 15.628 178.335 15.5253 178.591 15.32C178.853 15.1147 179.049 14.8183 179.179 14.431L180.901 14.816C180.668 15.586 180.26 16.1787 179.676 16.594C179.093 17.0047 178.379 17.21 177.534 17.21ZM182.239 8.292V6.745H183.926V8.292H182.239ZM182.239 17V9.44H183.926V17H182.239ZM189.656 17.21C188.919 17.21 188.3 17.035 187.801 16.685C187.302 16.335 186.926 15.859 186.674 15.257C186.422 14.6503 186.296 13.9713 186.296 13.22C186.296 12.4593 186.422 11.778 186.674 11.176C186.926 10.574 187.295 10.1003 187.78 9.755C188.27 9.405 188.874 9.23 189.593 9.23C190.307 9.23 190.925 9.405 191.448 9.755C191.975 10.1003 192.384 10.574 192.673 11.176C192.962 11.7733 193.107 12.4547 193.107 13.22C193.107 13.976 192.965 14.655 192.68 15.257C192.395 15.859 191.994 16.335 191.476 16.685C190.958 17.035 190.351 17.21 189.656 17.21ZM186.009 20.36V9.44H187.5V14.746H187.71V20.36H186.009ZM189.397 15.698C189.836 15.698 190.197 15.5883 190.482 15.369C190.767 15.1497 190.977 14.8533 191.112 14.48C191.252 14.102 191.322 13.682 191.322 13.22C191.322 12.7627 191.252 12.3473 191.112 11.974C190.972 11.596 190.755 11.2973 190.461 11.078C190.167 10.854 189.794 10.742 189.341 10.742C188.912 10.742 188.562 10.847 188.291 11.057C188.02 11.2623 187.82 11.5517 187.689 11.925C187.563 12.2937 187.5 12.7253 187.5 13.22C187.5 13.71 187.563 14.1417 187.689 14.515C187.82 14.8883 188.023 15.18 188.298 15.39C188.578 15.5953 188.944 15.698 189.397 15.698ZM194.79 8.292V6.745H196.477V8.292H194.79ZM194.79 17V9.44H196.477V17H194.79ZM202.011 17.21C201.245 17.21 200.573 17.0443 199.995 16.713C199.416 16.3817 198.963 15.922 198.637 15.334C198.315 14.746 198.154 14.0693 198.154 13.304C198.154 12.478 198.312 11.7617 198.63 11.155C198.947 10.5437 199.388 10.07 199.953 9.734C200.517 9.398 201.171 9.23 201.913 9.23C202.697 9.23 203.362 9.41433 203.908 9.783C204.458 10.147 204.867 10.6627 205.133 11.33C205.399 11.9973 205.499 12.7837 205.434 13.689H203.761V13.073C203.756 12.2517 203.611 11.652 203.327 11.274C203.042 10.896 202.594 10.707 201.983 10.707C201.292 10.707 200.779 10.9217 200.443 11.351C200.107 11.7757 199.939 12.3987 199.939 13.22C199.939 13.9853 200.107 14.578 200.443 14.998C200.779 15.418 201.269 15.628 201.913 15.628C202.328 15.628 202.685 15.537 202.984 15.355C203.287 15.1683 203.52 14.9 203.684 14.55L205.35 15.054C205.06 15.7353 204.612 16.265 204.006 16.643C203.404 17.021 202.739 17.21 202.011 17.21ZM199.407 13.689V12.415H204.608V13.689H199.407ZM212.02 17V13.36C212.02 13.122 212.003 12.8583 211.971 12.569C211.938 12.2797 211.861 12.002 211.74 11.736C211.623 11.4653 211.446 11.2437 211.208 11.071C210.974 10.8983 210.657 10.812 210.256 10.812C210.041 10.812 209.829 10.847 209.619 10.917C209.409 10.987 209.217 11.1083 209.045 11.281C208.877 11.449 208.741 11.6823 208.639 11.981C208.536 12.275 208.485 12.653 208.485 13.115L207.484 12.688C207.484 12.044 207.607 11.4607 207.855 10.938C208.107 10.4153 208.475 10 208.961 9.692C209.446 9.37933 210.043 9.223 210.753 9.223C211.313 9.223 211.775 9.31633 212.139 9.503C212.503 9.68967 212.792 9.92767 213.007 10.217C213.221 10.5063 213.38 10.8143 213.483 11.141C213.585 11.4677 213.651 11.778 213.679 12.072C213.711 12.3613 213.728 12.597 213.728 12.779V17H212.02ZM206.777 17V9.44H208.282V11.785H208.485V17H206.777ZM219.985 17C219.486 17.0933 218.996 17.133 218.515 17.119C218.039 17.1097 217.612 17.0233 217.234 16.86C216.856 16.692 216.569 16.4283 216.373 16.069C216.201 15.7423 216.11 15.4087 216.1 15.068C216.091 14.7273 216.086 14.3423 216.086 13.913V7.34H217.766V13.815C217.766 14.1183 217.769 14.3843 217.773 14.613C217.783 14.8417 217.832 15.0283 217.92 15.173C218.088 15.453 218.357 15.6093 218.725 15.642C219.094 15.6747 219.514 15.656 219.985 15.586V17ZM214.714 10.763V9.44H219.985V10.763H214.714ZM224.53 17.21C223.597 17.21 222.838 17 222.255 16.58C221.672 16.16 221.317 15.5697 221.191 14.809L222.913 14.543C223.002 14.9163 223.198 15.2103 223.501 15.425C223.804 15.6397 224.187 15.747 224.649 15.747C225.055 15.747 225.368 15.6677 225.587 15.509C225.811 15.3457 225.923 15.124 225.923 14.844C225.923 14.6713 225.881 14.5337 225.797 14.431C225.718 14.3237 225.54 14.221 225.265 14.123C224.99 14.025 224.567 13.9013 223.998 13.752C223.363 13.584 222.859 13.4043 222.486 13.213C222.113 13.017 221.844 12.786 221.681 12.52C221.518 12.254 221.436 11.932 221.436 11.554C221.436 11.0827 221.56 10.672 221.807 10.322C222.054 9.972 222.4 9.70367 222.843 9.517C223.286 9.32567 223.809 9.23 224.411 9.23C224.999 9.23 225.519 9.321 225.972 9.503C226.429 9.685 226.798 9.944 227.078 10.28C227.358 10.616 227.531 11.0103 227.596 11.463L225.874 11.771C225.832 11.449 225.685 11.1947 225.433 11.008C225.186 10.8213 224.854 10.7163 224.439 10.693C224.042 10.6697 223.723 10.7303 223.48 10.875C223.237 11.015 223.116 11.2133 223.116 11.47C223.116 11.6147 223.165 11.7383 223.263 11.841C223.361 11.9437 223.557 12.0463 223.851 12.149C224.15 12.2517 224.593 12.3777 225.181 12.527C225.783 12.681 226.264 12.8583 226.623 13.059C226.987 13.255 227.248 13.4907 227.407 13.766C227.57 14.0413 227.652 14.375 227.652 14.767C227.652 15.5277 227.374 16.125 226.819 16.559C226.268 16.993 225.505 17.21 224.53 17.21Z" fill="white"/>
<path d="M44.4544 4.0045C44.5027 3.87055 44.5119 3.72561 44.4808 3.58662C44.4498 3.44764 44.3799 3.32036 44.2792 3.21967C44.1785 3.11898 44.0512 3.04903 43.9122 3.01801C43.7732 2.98699 43.6283 2.99618 43.4944 3.0445L26.9944 9.0445C26.8516 9.09627 26.7279 9.19017 26.6396 9.31378C26.5514 9.43739 26.5027 9.58488 26.5001 9.73674C26.4975 9.8886 26.5411 10.0377 26.625 10.1642C26.709 10.2908 26.8294 10.3889 26.9704 10.4455L33.6199 13.105L37.9699 8.47L39.0304 9.5305L34.5604 14.2945L37.0534 20.5285C37.1098 20.6695 37.2078 20.79 37.3343 20.8741C37.4607 20.9582 37.6097 21.0019 37.7616 20.9995C37.9135 20.997 38.061 20.9485 38.1847 20.8604C38.3084 20.7723 38.4024 20.6487 38.4544 20.506L44.4544 4.0045Z" fill="white"/>
<path d="M44.4544 4.0045C44.5027 3.87055 44.5119 3.72561 44.4808 3.58662C44.4498 3.44764 44.3799 3.32036 44.2792 3.21967C44.1785 3.11898 44.0512 3.04903 43.9122 3.01801C43.7732 2.98699 43.6283 2.99618 43.4944 3.0445L26.9944 9.0445C26.8516 9.09627 26.7279 9.19017 26.6396 9.31378C26.5514 9.43739 26.5027 9.58488 26.5001 9.73674C26.4975 9.8886 26.5411 10.0377 26.625 10.1642C26.709 10.2908 26.8294 10.3889 26.9704 10.4455L33.6199 13.105L37.9699 8.47L39.0304 9.5305L34.5604 14.2945L37.0534 20.5285C37.1098 20.6695 37.2078 20.79 37.3343 20.8741C37.4607 20.9582 37.6097 21.0019 37.7616 20.9995C37.9135 20.997 38.061 20.9485 38.1847 20.8604C38.3084 20.7723 38.4024 20.6487 38.4544 20.506L44.4544 4.0045Z" fill="white"/>
<rect opacity="0.5" x="36" y="25" width="1" height="21" rx="0.5" fill="white"/>
<rect opacity="0.5" x="36" y="73" width="1" height="21" rx="0.5" fill="white"/>
<rect opacity="0.5" x="36" y="121" width="1" height="21" rx="0.5" fill="white"/>
<rect opacity="0.5" x="36" y="169" width="1" height="21" rx="0.5" fill="white"/>
<rect opacity="0.5" x="36" y="217" width="1" height="21" rx="0.5" fill="white"/>
<rect opacity="0.5" x="36" y="265" width="1" height="21" rx="0.5" fill="white"/>
</mask>
<g mask="url(#mask1_3679_46476)">
<rect x="10" y="-6" width="254" height="318" fill="url(#paint0_linear_3679_46476)"/>
</g>
</g>
<defs>
<linearGradient id="paint0_linear_3679_46476" x1="137" y1="-6" x2="137" y2="312" gradientUnits="userSpaceOnUse">
<stop stop-color="white"/>
<stop offset="1" stop-color="white" stop-opacity="0"/>
</linearGradient>
</defs>
</svg>
